<?xml version="1.0" encoding="utf-8"?>
<!-- Generator: Adobe Illustrator 27.5.0, SVG Export Plug-In . SVG Version: 6.00 Build 0)  -->
<svg version="1.1" xmlns="http://www.w3.org/2000/svg" xmlns:xlink="http://www.w3.org/1999/xlink" x="0px" y="0px"
	 viewBox="0 0 750 500" style="enable-background:new 0 0 750 500;" xml:space="preserve">
<g id="BACKGROUND">
	<g>
		<g>
			<rect style="fill:#7E89FD;" width="750" height="500"/>
		</g>
	</g>
</g>
<g id="OBJECTS">
	<g>
		<g>
			<path style="fill:#7384FF;" d="M448.994,34.2h-28.46c-0.509,0-0.922-0.413-0.922-0.921v-9.89c0-0.509,0.413-0.921,0.922-0.921
				h28.46c0.509,0,0.922,0.413,0.922,0.921v9.89C449.915,33.787,449.503,34.2,448.994,34.2z"/>
			<path style="fill:#7384FF;" d="M667.965,149.52h-28.461c-0.509,0-0.921-0.413-0.921-0.921v-9.89c0-0.509,0.412-0.922,0.921-0.922
				h28.461c0.509,0,0.921,0.413,0.921,0.922v9.89C668.887,149.108,668.474,149.52,667.965,149.52z"/>
			<path style="fill:#7384FF;" d="M111.85,300.199H83.39c-0.509,0-0.922-0.413-0.922-0.922v-9.89c0-0.509,0.413-0.921,0.922-0.921
				h28.461c0.509,0,0.921,0.413,0.921,0.921v9.89C112.772,299.786,112.359,300.199,111.85,300.199z"/>
			<path style="fill:#7384FF;" d="M619.658,399.105h-28.461c-0.509,0-0.922-0.413-0.922-0.921v-9.89
				c0-0.509,0.412-0.921,0.922-0.921h28.461c0.509,0,0.922,0.412,0.922,0.921v9.89C620.58,398.692,620.167,399.105,619.658,399.105z
				"/>
			<path style="fill:#7384FF;" d="M590.086,130.179h-28.461c-0.509,0-0.922-0.413-0.922-0.921v-9.89
				c0-0.509,0.413-0.922,0.922-0.922h28.461c0.509,0,0.922,0.413,0.922,0.922v9.89C591.007,129.767,590.595,130.179,590.086,130.179
				z"/>
			<path style="fill:#7384FF;" d="M189.549,165.877h-28.461c-0.509,0-0.921-0.413-0.921-0.921v-9.89
				c0-0.509,0.413-0.921,0.921-0.921h28.461c0.509,0,0.921,0.412,0.921,0.921v9.89C190.471,165.465,190.058,165.877,189.549,165.877
				z"/>
			<path style="fill:#7384FF;" d="M305.588,55.533h-28.461c-0.509,0-0.922-0.413-0.922-0.922v-9.89c0-0.509,0.413-0.921,0.922-0.921
				h28.461c0.509,0,0.922,0.413,0.922,0.921v9.89C306.509,55.12,306.097,55.533,305.588,55.533z"/>
			<path style="fill:#7384FF;" d="M137.946,160.011h-28.461c-0.509,0-0.922-0.412-0.922-0.921v-9.89
				c0-0.509,0.413-0.921,0.922-0.921h28.461c0.509,0,0.921,0.413,0.921,0.921v9.89C138.867,159.598,138.455,160.011,137.946,160.011
				z"/>
			<path style="fill:#7384FF;" d="M652.813,360.636h-28.461c-0.509,0-0.922-0.413-0.922-0.922v-9.89
				c0-0.509,0.413-0.921,0.922-0.921h28.461c0.509,0,0.921,0.413,0.921,0.921v9.89C653.735,360.224,653.322,360.636,652.813,360.636
				z"/>
			<path style="fill:#7384FF;" d="M99.755,230.894h-28.46c-0.509,0-0.922-0.412-0.922-0.921v-9.89c0-0.509,0.413-0.921,0.922-0.921
				h28.46c0.509,0,0.922,0.413,0.922,0.921v9.89C100.677,230.482,100.264,230.894,99.755,230.894z"/>
			<path style="fill:#7384FF;" d="M577.15,100.867H548.69c-0.509,0-0.922-0.413-0.922-0.922v-9.89c0-0.509,0.413-0.921,0.922-0.921
				h28.461c0.509,0,0.922,0.412,0.922,0.921v9.89C578.072,100.454,577.659,100.867,577.15,100.867z"/>
		</g>
		<g style="opacity:0.7;">
			<rect x="176.707" y="73.892" style="fill:#9CA8FF;" width="328.495" height="228.327"/>
			<rect x="185.874" y="82.024" style="fill:#C0D1FF;" width="310.406" height="211.377"/>
			<polygon style="opacity:0.2;fill:#FFFDFC;" points="332.597,293.401 302.307,293.401 222.223,82.024 252.514,82.024 			"/>
			<polygon style="opacity:0.2;fill:#FFFDFC;" points="478.887,293.401 448.597,293.401 368.513,82.024 398.804,82.024 			"/>
			<polygon style="opacity:0.2;fill:#FFFDFC;" points="368.513,293.401 353.368,293.401 273.284,82.024 288.43,82.024 			"/>
			
				<rect x="335.199" y="-28.804" transform="matrix(-1.836970e-16 1 -1 -1.836970e-16 469.4354 -210.8862)" style="fill:#9CA8FF;" width="9.924" height="316.157"/>
			<rect x="336.116" y="82.024" style="fill:#9CA8FF;" width="9.924" height="211.502"/>
		</g>
		<g>
			<g>
				<polygon style="fill:#8E9AEE;" points="317.443,440.46 322.019,440.46 331.543,360.086 322.751,360.086 				"/>
				<polygon style="fill:#8E9AEE;" points="382.447,440.46 377.87,440.46 368.346,360.086 377.138,360.086 				"/>
				<path style="fill:#C4C9FC;" d="M305.636,257.145h-24.179c-5.743,0-10.13,5.127-9.242,10.801l14.804,94.602h27.961
					L305.636,257.145z"/>
				<polygon style="fill:#C4C9FC;" points="281.718,440.46 286.295,440.46 295.819,360.086 287.027,360.086 				"/>
				<polygon style="fill:#C4C9FC;" points="346.723,440.46 342.146,440.46 332.622,360.086 341.414,360.086 				"/>
				<path style="fill:#C4C9FC;" d="M291.345,366.872h84.14c2.389,0,4.325-1.936,4.325-4.325l0,0c0-2.389-1.937-4.325-4.325-4.325
					h-84.14c-2.389,0-4.326,1.936-4.326,4.325l0,0C287.019,364.936,288.956,366.872,291.345,366.872z"/>
			</g>
			<g>
				<path style="fill:#525BAD;" d="M367.966,440.555h-26.939c0,0-1.506-4.797,1.757-10.74c0,0,2.168,1.739,8.663,0.563
					c0,0,2.711,2.301,4.582,3.201C357.912,434.489,368.692,436.607,367.966,440.555z"/>
				<path style="fill:#525BAD;" d="M416.693,440.555h-26.939c0,0-1.505-4.797,1.757-10.74c0,0,2.168,1.739,8.663,0.563
					c0,0,2.711,2.301,4.582,3.201C406.638,434.489,417.419,436.607,416.693,440.555z"/>
				<path style="fill:#24315D;" d="M326.619,333.747L326.619,333.747c0.375-3.691,1.093-5.562,1.093-5.562
					s47.25,8.908,59.816,13.129c6.244,2.097,11.009,5.95,11.599,11.585l0.028-0.006c0.062,0.591,1.583,56.867,1.799,77.352
					c-5.147,1.274-8.876,1.15-10.641,0.951c-1.433-8.34-5.749-26.533-7.599-35.177c-2.192-10.24-4.969-22.451-5.502-30.884
					c-19.102-1.663-44.322-4.47-47.349-5.999C324.872,356.615,323.369,347.704,326.619,333.747z"/>
				<path style="fill:#2D3A70;" d="M295.937,331.124c0.375-3.691,1.707-5.029,1.707-5.029l19.5,6.372l17.726,4.039
					c6.571,1.464,14.51,3.227,21.508,4.808c7.853,1.784,13.067,7.75,11.347,15.613l-1.968,9.539c0,0-0.001,0-0.001,0
					c-2.251,12.214-9.619,44.737-12.888,64.385c-6.308,0.537-9.337-0.187-10.943-0.557c0.314-7.235,0.073-24.145,0-31.735
					c-0.094-10.106-0.343-24.755,2.087-34.31c-16.356-0.629-35.103-2.018-43.625-6.625
					C290.305,352.175,295.937,331.124,295.937,331.124z"/>
				<path style="fill:#E6E9FF;" d="M350.634,273.465l2.5,10.98l0.84,3.72v0.01l3.07,13.46c1.3,1.65,8.68,11.09,13.56,18.87
					c5.368,8.541,11.679,14.939,11.707,14.967l0.001,0c0.765,0.803,4.62,2.681,6.589,4.076c1.969,1.395,3.952,4.238,3.952,4.238
					s-4.381-2.164-7.843-3.07c-1.698-0.445-4.563-0.891-4.609-0.385c-0.009,0.102,0.688,1.052,0.938,1.521
					c0.25,0.469,1.943,1.302,2.381,1.771c0.438,0.469,0.635,1.51,0.14,1.479c-0.494-0.031-3.302-0.948-4.521-1.479
					c-1.219-0.531-2.149-1.836-2.813-3.438c-0.906-2.188-2.883-4.341-2.883-4.341l0.006-0.001
					c-13.345-10.976-24.691-24.255-26.896-27.078c-0.88-1.12-1.62-2.17-2.25-3.19v-0.01c-2.02-3.24-2.97-6.15-3.94-10.02
					c0-0.01,0-0.01,0-0.02c-0.65-1.99-1.21-3.98-1.7-5.84c-1.37-5.28-2.09-9.48-2.09-9.48L350.634,273.465z"/>
				<path style="fill:#FFFFFF;" d="M296.184,303.185c0.42,6.91,3.8,12.09,0.59,22.62c-0.76,2.52-0.95,3.82-0.95,4.86
					c0,0.73,0.92,1.48,1.3,1.69c3.97,2.29,19.42,2.63,27.19,2.63c6.9,0,17.27-1.1,18.57-2.84c1.2-1.6,0.1-3.91-0.47-7.11
					c-2.54-14.43-1.64-21.95-1.48-32.37c0-0.26,0.01-0.52,0.01-0.79v-0.2h0.01c0.82-0.12,1.6-0.27,2.28-0.41
					c1.12-0.25,1.98-0.5,2.35-0.62c8.38-2.63,9.63-5.32,9.63-5.32c-2.37-10.31-5.23-17.23-7.78-21.8c-0.06-0.11-0.12-0.22-0.19-0.34
					c-0.06-0.11-0.13-0.23-0.2-0.34c-1.37-2.27-3.34-4.18-5.53-5.75c-0.22-0.16-0.43-0.31-0.66-0.47c-6.3-4.26-14.05-5.96-14.71-6.1
					c-0.03-0.01-0.04-0.01-0.04-0.01c-1.99-0.13-4.16-0.17-6.52-0.09c-4,0.11-10.48,1.09-16.25,2.66c0,0-0.04,0.01-0.07,0.02
					c-0.56,0.18-4.31,1.58-8.2,5.75c-1.31,1.37-2.64,3.07-3.84,5.15c0.27,6.46,1.67,18.09,2.46,28.14
					C293.814,293.664,296.094,301.745,296.184,303.185z"/>
				<path style="fill:#E3E6ED;" d="M340.954,291.674c0.82-0.12,1.6-0.27,2.28-0.41l-1.94-17.8
					C341.224,276.375,340.984,289.865,340.954,291.674z"/>
				<g>
					<path style="fill:#192C51;" d="M335.918,218.309c0,0,1.837,12.083-3.556,13.335c-3.47,0.805-3.051-3.438-3.051-3.438
						l-0.091-5.023L335.918,218.309z"/>
					<path style="fill:#E6E9FF;" d="M323.219,254.625c-0.228,1.313-0.724,7.48-1.144,7.5l-1.543-7.245c0,0-2.92,4.06-2.84,4.67
						c-4.177-1.958-8.27-7.43-6.74-8.15c1.23-0.18,1.6-1.15,1.77-1.79c1.62-6.31-0.4-16.31-0.4-16.31l7.61,5.99l3.59,2.82
						c0.1,0.37,0.21,0.77,0.32,1.18v0.65c0,0,0,0,0,0.01c-0.02,0.22-0.33,3.71,0.35,5.46c0.12,0.34,0.29,0.62,0.52,0.79
						c0.24,0.18,1.39,0.32,1.39,0.32l0.01-0.01C326.452,251.56,327.519,253.925,323.219,254.625z"/>
					<path style="fill:#C2CBF9;" d="M316.88,239.663c0,0,0.064,6.674,7.308,9.743c-0.673-1.742-0.363-5.236-0.342-5.46l-3.035-2.383
						L316.88,239.663z"/>
					<path style="fill:#E6E9FF;" d="M335.039,223.083c0.071,3.65,0.054,13.456-1.938,19.089c-0.93,2.629-3.549,4.265-6.324,3.983
						c-2.711-0.275-6.572-1.4-10.057-5.106c-1.785-1.898-3.791-2.139-4.72-4.574c-1.508-3.955-3.841-11.301-2.503-16.047
						c1.826-6.477,21.669-13.807,25.144-0.607C334.921,220.884,335.017,221.983,335.039,223.083z"/>
					<path style="fill:#192C51;" d="M312.679,212.464c6.521-3.527,26.458-4.089,25.333,7.286
						c-0.544,5.499-12.635,4.154-16.408,3.348c-0.566,2.66-0.042,6.206-1.982,8.291c-1.105,1.188-3.233,1.465-5.442,1.355
						c-0.208,0.538-1.264,1.091-1.281,1.821c-0.06,2.51,0.543,5.827,0.452,8.827l-1.082-0.382
						c-0.142-0.477-6.941-10.37-6.997-17.983C305.221,217.833,310.79,213.486,312.679,212.464z"/>
					<g>
						<path style="fill:#E6E9FF;" d="M316.872,237.073c-3.983,2.08-6.475-8.028-2.569-8.942c2.962-0.693,3.57,3.481,3.57,3.481
							S319.146,235.885,316.872,237.073z"/>
					</g>
					<path style="fill:#C2CBF9;" d="M316.716,232.78c0.01-0.293-0.006-0.598-0.065-0.903c-0.083-0.39-0.232-0.773-0.438-1.092
						c-0.199-0.323-0.46-0.572-0.698-0.748c-0.497-0.345-0.896-0.375-0.896-0.375s0.302,0.246,0.602,0.675
						c0.298,0.422,0.585,1.012,0.705,1.666c-0.109-0.071-0.217-0.144-0.339-0.194c-0.343-0.146-0.704-0.189-0.965-0.178
						c-0.262,0.006-0.428,0.055-0.428,0.055s0.173-0.002,0.416,0.06c0.243,0.056,0.55,0.186,0.793,0.382
						c0.248,0.192,0.422,0.444,0.518,0.645c0.101,0.199,0.142,0.343,0.142,0.343l0.002-0.001c0.019,0.289,0.021,0.571,0.029,0.816
						c0.003,0.277,0.005,0.508,0.007,0.669c0.003,0.165,0.014,0.263,0.014,0.263s0.051-0.081,0.125-0.23
						c0.06-0.152,0.196-0.361,0.271-0.637c0.087-0.273,0.173-0.601,0.198-0.966c0.009-0.076,0.003-0.158,0.006-0.236l0.007-0.004
						C316.723,232.79,316.718,232.782,316.716,232.78z"/>
				</g>
				<path style="fill:#E3E6ED;" d="M306.335,273.465c0,0-2.204,13.219-3.787,19.219c0,0-1.027,0.373-4.876,0.334L306.335,273.465z"
					/>
				<g>
					<path style="fill:#3C4888;" d="M263.305,401.805v35.44c0,1.7,1.38,3.08,3.08,3.08h53.43c1.7,0,3.08-1.38,3.08-3.08v-35.44
						c0-1.7-1.38-3.08-3.08-3.08h-53.43C264.685,398.725,263.305,400.105,263.305,401.805z"/>
					<path style="fill:#525BAD;" d="M260.055,401.805v35.44c0,1.7,1.38,3.08,3.08,3.08h53.43c1.7,0,3.08-1.38,3.08-3.08v-35.44
						c0-1.7-1.38-3.08-3.08-3.08h-53.43C261.435,398.725,260.055,400.105,260.055,401.805z"/>
					<path style="fill:#3C4888;" d="M280.263,400.029h3.301v-0.787c0-1.698,1.381-3.079,3.079-3.079h6.416
						c1.698,0,3.079,1.381,3.079,3.079v0.787h3.301v-0.787c0-3.518-2.862-6.38-6.38-6.38h-6.416c-3.518,0-6.38,2.862-6.38,6.38
						V400.029z"/>
					<path style="fill:#46509B;" d="M263.111,398.725h26.739h26.739c1.687,0,3.056,1.38,3.056,3.08v7.81l-29.795,9.29l-29.795-9.29
						v-7.81C260.055,400.105,261.424,398.725,263.111,398.725z"/>
					<path style="fill:#3C4888;" d="M285.549,420.355h8.498c0.341,0,0.617-0.276,0.617-0.617v-3.116
						c0-0.341-0.276-0.617-0.617-0.617h-8.498c-0.341,0-0.617,0.276-0.617,0.617v3.116
						C284.932,420.079,285.208,420.355,285.549,420.355z"/>
				</g>
				<path style="fill:#E6E9FF;" d="M301.022,283.27c0,0-0.11,0.74-0.32,1.98c-0.37,2.17-1.02,5.89-1.85,9.81
					c-0.57,2.68-1.22,5.45-1.91,7.9l-15.25-1.62c0.2-2.05,0.46-4.34,0.74-6.66c0.02-0.16,0.03-0.25,0.03-0.25
					c0.26-2.16,0.53-4.36,0.8-6.43c0.13-1.08,0.26-2.12,0.39-3.11c0.62-4.77,1.11-8.32,1.11-8.32L301.022,283.27z"/>
				<path style="fill:#FFFFFF;" d="M286.839,268.497c2.54-5.715,4.539-8.417,5.625-9.563c3.433-3.622,7.722-4.722,7.722-4.722
					c1.747-0.706,3.075-1.109,3.075-1.109s5.203,3.748,3.373,18.516c-0.796,6.42-5.606,19.631-5.606,19.631
					c-3.33,0.553-8.274-0.665-11.971-2.003c-4.75-1.719-6.673-3.98-6.673-3.98S284.01,274.863,286.839,268.497z"/>
				<path style="fill:#FFFFFF;" d="M312.989,248.365c0,0,1.315,5.178,7.544,6.51l-2.907,5.164c0,0-6.114-1.914-7.84-8.427
					L312.989,248.365z"/>
				<path style="fill:#FFFFFF;" d="M323.219,254.625l3.261,3.917c0,0,1.449-3.583-0.336-8.017L324,248.774
					C324,248.774,324.825,250.383,323.219,254.625z"/>
				<path style="fill:#2D3A70;" d="M325.915,304.197l13.849-30.579c0.216-0.478,0.692-0.784,1.216-0.784h27.194
					c0.789,0,1.28,0.857,0.881,1.538l-18.215,31.052c-0.24,0.409-0.678,0.66-1.152,0.66h-22.559
					C326.161,306.083,325.515,305.081,325.915,304.197z"/>
				<path style="fill:#E6E9FF;" d="M328.179,291.386c0,0-29.519,3.28-34.801,4.614c-5.282,1.333-11.686,5.34-11.686,5.34
					s-1.43,7.41,6.32,8.41s41.167-14.167,41.167-14.167L328.179,291.386z"/>
				<path style="fill:#E6E9FF;" d="M341.117,288.75c-0.224,0-0.733,0.166-1.323,0.392c0.014-0.025,0.045-0.057,0.052-0.08
					c0.208-0.625-0.417-0.646-0.792-0.563c-0.375,0.083-1.333,0.667-2.542,0.833c-1.208,0.167-3.75-0.229-3.75-0.229l0.738-1.629
					c0,0-2.238,0.4-2.738,0.816c-0.5,0.417-1.167,1.125-2.417,2s-2.721,1.383-2.721,1.383l1.228,2.565l-2.439,0.639l0.561,0.921
					c0,0,7.334-0.241,8.322-0.456c0.988-0.214,3.796-1.516,4.661-2.002c0.534-0.299,0.707-0.63,0.609-0.866
					c0.629-0.39,1.185-0.757,1.485-0.976c0.579-0.425,0.658-0.829,0.408-1.035c0.298-0.215,0.557-0.409,0.724-0.544
					C341.955,289.297,341.783,288.75,341.117,288.75z"/>
			</g>
		</g>
		<g>
			<path style="fill:#AF2536;" d="M478.807,241.938c0,0,1.693-0.438,2.151-3.271c0.458-2.833-3.458-2.917-3.583-2.833
				c-0.125,0.083-1.958,1.125-1.958,1.125s-0.167,1.792,0,1.958C475.583,239.083,476.766,242.641,478.807,241.938z"/>
			<path style="fill:#E5918F;" d="M504.632,202.784c-0.163-0.562-0.857,0.118-1.094,0.473c-0.034,0.051-0.112,0.174-0.215,0.338
				c0.382-0.835,1.115-2.692,0.948-3.27c-0.158-0.548-0.712-0.17-1.1,0.24c0.283-0.783,0.516-1.609,0.414-1.959
				c-0.207-0.717-1.094,0.151-1.395,0.604c-0.14,0.21-0.808,1.289-1.483,2.385c0.392-0.93,0.9-2.345,0.758-2.835
				c-0.208-0.717-1.094,0.151-1.396,0.604c-0.302,0.453-3.055,4.941-3.055,4.941l-0.7,1.058c0,0-0.272-2.69-0.554-3.642
				c-0.282-0.953-1.094-0.988-1.27-0.212c-0.176,0.776-0.529,2.94-0.635,3.892c-0.106,0.952-0.07,2.775-0.141,3.904
				c-0.039,0.621-0.112,1.72-0.858,2.606c-1.674,1.754-4.515,4.729-6.709,7.004c-3.304,3.426-7.342,8.504-7.342,8.504l-4.568-6.369
				l-9.947,10.774c0,0,11.456,10.156,16.106,8.198c3.892-1.639,13.179-19.412,16.104-25.164l0,0c0.113-0.196,1.02-1.489,2.099-2.612
				c1.087-1.132,2.346-2.094,2.346-2.094s1.026-1.243,1.785-2.469c0.586-0.946,0.94-1.933,0.999-2.016
				C503.864,205.474,504.795,203.345,504.632,202.784z"/>
			<polygon style="fill:#AF2536;" points="466.926,427.839 468.056,440.379 468.863,440.379 470.095,427.839 			"/>
			<polygon style="fill:#AF2536;" points="423.104,427.839 424.233,440.379 425.04,440.379 426.272,427.839 			"/>
			<path style="fill:#E2404D;" d="M468.178,420.534c0,0-3.322,1.704-1.57,6.5c1.355,3.708,2.47,4.969,3.274,7.668
				c0.804,2.7,2.64,4.837,5.859,5.715c2.144,0.585,5.702-0.737,4.911-2.211c-1.896-3.533-2.771-5.91-2.771-5.91L468.178,420.534z"/>
			<path style="fill:#E5918F;" d="M416.363,412.27c0,0,0.378,3.592,0.863,8.762c0,0-0.74,2.278-1.723,5.112
				c-1.101,3.173-3.325,9.016-3.325,9.016s0.583,2.499,2.24,1.652c0.514-0.263,1.024-0.596,1.475-1.018
				c1.907-1.781,8.886-11.862,8.886-11.862l-0.517-2.901l1.342-11.469L416.363,412.27z"/>
			<path style="fill:#E5918F;" d="M466.309,413.097l1.933,7.806c0,0-1.035,1.894,0.076,4.493c0.756,1.768,1.914,2.449,2.675,4.884
				c0.469,1.503,1.506,2.707,1.753,2.988c1.602,1.823,4.045,1.524,4.811,1.09c1.321-0.747,0.036-2.457-0.092-3.044
				c-0.867-3.963-2.202-9.202-2.815-10.933c-0.364-2.757-0.615-7.463-0.615-7.463L466.309,413.097z"/>
			<path style="fill:#18004D;" d="M419.792,269.413c0,0-6.061,8.164-7.616,27.487c-1.156,14.368-1.604,37.636-1.508,43.731
				c0.059,3.777,1.12,7.453,2.08,16.44c0.96,8.987,3.615,55.199,3.615,55.199s2.869,2.361,8.906,0.16c0,0,6.96-46.597,6.434-55.255
				c-0.526-8.658-1.858-10.98-0.949-16.223c0.953-5.495,6.722-40.764,6.475-40.86l0.946,0.368c0,0,4.698,19.575,8.233,30.99
				c3.534,11.416,5.071,18.313,5.071,18.313s0.426,12.738,2.602,21.648c2.175,8.911,12.23,41.684,12.23,41.684
				s3.562,1.684,7.725-0.179c0,0-0.747-38.803-1.544-45.51c-0.798-6.707-3.205-17.682-3.205-17.682s-2.771-40.687-4.216-53.516
				c-2.057-18.26-8.456-25.879-8.456-25.879L419.792,269.413z"/>
			<path style="fill:#18004D;" d="M423.954,173.464c0,0-2.256,13.403,7.131,15.947c5.671,1.537-1.811-12.747-1.811-12.747
				L423.954,173.464z"/>
			<path style="fill:#18004D;" d="M449.355,168.466c0,0,5.023,12.599-1.945,17.733c-4.73,3.485-3.153-12.483-3.153-12.483
				L449.355,168.466z"/>
			<path style="fill:#CC6362;" d="M426.059,180.42c0,0-1.939-1.202-3.025-0.078c-1.086,1.124,0.45,7.119,5.131,6.555L426.059,180.42
				z"/>
			<path style="fill:#CC6362;" d="M448.761,175.954c0,0,1.339-1.848,2.77-1.218c1.431,0.629,2.28,6.759-2.266,8.01L448.761,175.954z
				"/>
			<path style="fill:#E5918F;" d="M451.154,200.941c-1.103,2.426-4.485,7.876-12.573,8.299c-7.959-0.414-11.35-5.698-12.518-8.189
				c1.434-0.46,3.474-1.277,4.522-2.399c0.919-0.983,1.627-3.014,2.086-4.678c0.395-1.443,0.597-2.61,0.597-2.61l-0.919-1.884
				v-0.009c0.018-0.202,0.037-0.386,0.055-0.542c0.027-0.276,0.046-0.496,0.055-0.643c0.009-0.147,0.018-0.23,0.018-0.23h12.214
				c0,0,0.009,0.083,0.018,0.23c0.009,0.147,0.028,0.368,0.055,0.634c0,0.018,0,0.027,0.009,0.046l-0.708,1.599
				c0,0,0.101,1.563,0.413,3.318c0.276,1.581,0.726,3.309,1.425,4.182C446.705,199.075,449.122,200.159,451.154,200.941z"/>
			<path style="fill:#CC6362;" d="M444.068,190.564c0,0,0.101,1.563,0.413,3.318c-0.823,1.195-2.047,3.039-4.225,3.538
				c-2.03,0.466-6.464-2.16-7.585-3.447c0.395-1.443,0.597-2.61,0.597-2.61l-0.919-1.884v-0.009
				c0.018-0.202,0.037-0.386,0.055-0.542c0.027-0.276,0.046-0.496,0.055-0.643c0.009-0.147,0.018-0.23,0.018-0.23h12.214
				c0,0,0.009,0.083,0.018,0.23c0.009,0.147,0.028,0.368,0.055,0.634c0,0.018,0,0.027,0.009,0.046L444.068,190.564z"/>
			<path style="fill:#E5918F;" d="M447.95,170.734l-12.533-2.679l-10.584,7.228c0,0,1.227,7.612,3.454,12.048
				c2.09,4.164,7.046,7.129,11.554,7.604c0.573,0.06,1.158-0.055,1.665-0.328c3.991-2.147,7.455-6.768,7.812-11.414
				C449.698,178.243,447.95,170.734,447.95,170.734z"/>
			<path style="fill:#210866;" d="M431.102,165.759c0,0-3.592-3.951-3.289-7.742c0.354-4.431,4.046-5.894,7.071-5.524
				c2.87,0.351,3.472,3.008,3.472,3.008s2.141-2.7,4.637-0.416c1.563,1.431,1.839,8.083-1.886,10.471
				C437.382,167.945,434.396,168.478,431.102,165.759z"/>
			<path style="fill:#E2404D;" d="M428.24,163.082c0,0-0.281-3.236,6.511-3.929c5.099-0.52,9.741,0.932,9.808,3.628
				C444.653,166.543,428.705,166.841,428.24,163.082z"/>
			<g>
				<path style="fill:#210866;" d="M434.618,163.46c0,0-0.344-0.133-0.998-0.304c-0.65-0.166-1.599-0.367-2.75-0.423
					c-1.142-0.05-2.513,0.043-3.815,0.614c-1.306,0.55-2.458,1.647-3.127,3.033c-0.358,0.692-0.569,1.413-0.701,2.172
					c-0.124,0.752-0.16,1.51-0.135,2.244c0.045,1.47,0.293,2.835,0.523,3.996c0.235,1.162,0.46,2.127,0.572,2.812
					c0.12,0.684,0.115,1.082,0.115,1.082s-0.01-0.398-0.158-1.074c-0.139-0.678-0.402-1.631-0.684-2.786
					c-0.277-1.155-0.583-2.517-0.689-4.014c-0.055-0.748-0.05-1.529,0.048-2.32c0.099-0.779,0.307-1.605,0.654-2.332
					c0.664-1.492,1.899-2.751,3.319-3.394c1.414-0.667,2.887-0.804,4.102-0.786c1.225,0.024,2.229,0.208,2.923,0.364
					c0.692,0.159,1.092,0.3,1.092,0.3L434.618,163.46z"/>
			</g>
			<path style="fill:none;stroke:#210866;stroke-width:0.8664;stroke-miterlimit:10;" d="M436.862,154.084
				c0,0,0.924-1.123,2.782-1.073c1.893,0.051,4.308,1.53,3.877,6.165"/>
			<g>
				<path style="fill:#210866;" d="M442.705,171.037c0.002-0.013-0.05,0.247-0.179,0.635c-0.135,0.388-0.333,0.939-0.66,1.553
					c-0.147,0.316-0.358,0.629-0.555,0.973c-0.235,0.32-0.447,0.683-0.735,1.007c-0.265,0.342-0.563,0.672-0.889,0.987
					c-0.303,0.336-0.677,0.608-1.019,0.91c-0.357,0.285-0.746,0.527-1.111,0.787c-0.391,0.217-0.776,0.43-1.149,0.637
					c-0.391,0.167-0.768,0.329-1.126,0.482c-0.358,0.15-0.718,0.235-1.038,0.344c-0.638,0.227-1.201,0.299-1.583,0.39
					c-0.385,0.08-0.604,0.126-0.604,0.126s0.217-0.059,0.596-0.162c0.376-0.113,0.929-0.218,1.548-0.482
					c0.31-0.127,0.66-0.231,1.003-0.401c0.342-0.171,0.703-0.352,1.076-0.539c0.351-0.223,0.713-0.454,1.082-0.688
					c0.339-0.275,0.7-0.531,1.027-0.826c0.312-0.312,0.655-0.591,0.924-0.931c0.293-0.318,0.557-0.65,0.789-0.99
					c0.254-0.322,0.433-0.68,0.637-0.993c0.166-0.337,0.347-0.641,0.466-0.946c0.272-0.593,0.423-1.114,0.525-1.473
					c0.097-0.365,0.119-0.549,0.123-0.562L442.705,171.037z"/>
			</g>
			<path style="fill:#210866;" d="M446.202,161.737c-2.857-1.016-5.248,0.118-6.285,1.063c-2.343-2.454-7.577-2.025-9.795-1.402
				c-6.34,1.783-6.888,7.085-6.558,13.611c0.219,4.338-0.12,4.564-0.12,4.564c11.659,2.035,17.372-4.953,18.625-8.458
				c1.185,1.821,4.262,6.034,9.113,5.257c0,0-0.012-1.826-0.255-3.949C450.626,169.798,450.034,163.1,446.202,161.737z"/>
			<path style="fill:#FFFFFF;" d="M456.595,270.275c0.009,0.018,0.009,0.037,0.018,0.055c-3.419,1.241-10.073,2.72-17.913,2.72
				c-7.968,0-15.385-2.141-18.905-3.639c0.221-0.607,2.252-3.594,2.463-10.385c0.322-10.652-2.344-30.596-3.731-34.961
				c-0.965-3.033-4.393-18.06-4.393-18.06l13.915-5.864c0.046,0.055,0.083,0.119,0.129,0.175c5.266,6.902,15.79,6.902,21.047,0
				c0.046-0.055,0.092-0.12,0.138-0.175l13.409,4.47c0,0-5.211,23.433-7.086,40.436c-1.7,15.413,0.441,23.657,0.864,25.063
				C456.568,270.183,456.586,270.238,456.595,270.275z"/>
			<path style="fill:#E2404D;" d="M477.125,240.938c-2.564-4.087,0.266-10.666,1.32-12.816c0.217-0.442,0.483-0.854,0.793-1.237
				c0.186-0.23,0.376-0.465,0.44-0.546c-0.334-0.308-1.178-0.308-1.816-0.238c-2.837-4.331-11.411-17.486-14.086-20.889
				c-0.239-0.305-1.005-0.602-1.005-0.602l-12.407-4.136c0,0-8.02,24.338-8.02,41.872c0,15.41,4.777,31.346,6.988,34.236
				c5.417,7.083,13.935,9.382,13.935,9.382s-2.935-16.553-5.435-26.466c-0.923-8.18-0.79-19.573,0.506-31.224
				c4.105,3.153,10.319,7.911,13.348,10.161c0.962,0.715,1.786,1.268,2.488,1.695c0.835,0.508,2.059,1.841,2.574,2.055
				c1.135,0.471,2.057-0.25,2.057-0.25C478.169,242,477.473,241.492,477.125,240.938z"/>
			<path style="fill:#AF2536;" d="M458.34,228.276c0,0,0.744-4.943,1.41-7.359c0,0,0.252,7.363,0.584,8.89L458.34,228.276z"/>
			<path style="fill:#E2404D;" d="M404.619,230.862c0,0-3.364,10.826-3.304,15.888c0.077,6.526,3.388,6.931,5.727,6.958
				c2.771,0.032,7.093-4.958,7.093-4.958l3.834-10.065L404.619,230.862z"/>
			<path style="fill:#E2404D;" d="M433,224.375c-1.71-13.723-6.591-23.544-6.591-23.544l-12.275,5.173c0,0-4.251,7.412-9.516,24.858
				c0,0-1.709,6.628-2.165,11.846c-0.96,1.034-2.15,2.64-2.267,4.48c-0.396,6.229,5.832,6.471,5.832,6.471s-2.332-0.659-2.05-4.019
				c-0.116-1.182-0.014-2.275,0.53-3.348c3.57-7.032,11.865-7.571,13.468-7.606c0.745-1.798,1.507-3.623,2.226-5.339l0.227,1.024
				c0,0,2.602,19.079,0.412,25.669c-4.917,14.794-7.221,26.35-7.221,26.35s10.888-3.701,14.626-9.819
				C434.515,266.299,436.944,256.033,433,224.375z"/>
			<path style="fill:#AF2536;" d="M420.194,233.346c0,0-1.403-7.221-1.986-10.138c0,0,1.074,10.614,0.87,12.807L420.194,233.346z"/>
			<g>
				<path style="fill:#AF2536;" d="M424.833,203.167c-0.335,2.044-0.706,4.082-1.066,6.121c-0.353,2.041-0.742,4.074-1.126,6.109
					l-0.129-0.322l5.812,3.878l0.398,0.266l-0.323,0.366l-3.703,4.197l0.066-0.508c0.774,1.569,1.477,3.143,2.131,4.749
					c0.34,0.796,0.64,1.608,0.957,2.414c0.321,0.804,0.578,1.632,0.87,2.446c0.294,0.814,0.53,1.648,0.798,2.471
					c0.272,0.822,0.495,1.659,0.73,2.491c0.24,0.832,0.469,1.666,0.662,2.511c0.196,0.843,0.428,1.678,0.593,2.528l0.503,2.548
					c0.149,0.853,0.252,1.714,0.38,2.57c0.138,0.855,0.227,1.716,0.294,2.58c0.066,0.863,0.181,1.722,0.207,2.587l0.072,2.595
					c0.035,0.864-0.061,1.729-0.085,2.592c-0.038,0.863-0.067,1.726-0.201,2.582l-0.341,2.564l0.161-2.579
					c0.087-0.855,0.069-1.716,0.06-2.575c-0.023-0.859,0.026-1.717-0.055-2.573l-0.172-2.567c-0.054-0.855-0.196-1.704-0.29-2.555
					c-0.095-0.852-0.211-1.7-0.376-2.542c-0.155-0.843-0.284-1.69-0.46-2.528l-0.542-2.512c-0.172-0.839-0.412-1.663-0.615-2.495
					c-0.2-0.833-0.436-1.657-0.683-2.478c-0.242-0.822-0.472-1.647-0.75-2.458c-0.274-0.812-0.517-1.634-0.817-2.437
					c-0.578-1.613-1.161-3.225-1.798-4.816c-0.628-1.592-1.314-3.172-2.047-4.701l-0.136-0.284l0.203-0.225l3.748-4.156l0.076,0.632
					l-5.687-4.059l-0.174-0.124l0.044-0.198c0.45-2.021,0.894-4.043,1.374-6.058C423.872,207.196,424.335,205.178,424.833,203.167z"
					/>
			</g>
			<g>
				<path style="fill:#AF2536;" d="M453.432,203.167c0.498,2.011,0.961,4.029,1.433,6.046c0.48,2.015,0.924,4.037,1.374,6.058
					l0.044,0.198l-0.173,0.124l-5.687,4.059l0.076-0.632l3.748,4.156l0.203,0.225l-0.136,0.284
					c-0.733,1.529-1.419,3.109-2.047,4.701c-0.637,1.591-1.221,3.202-1.798,4.816c-0.3,0.803-0.543,1.625-0.817,2.437
					c-0.278,0.811-0.508,1.636-0.75,2.458c-0.247,0.821-0.482,1.645-0.683,2.478c-0.203,0.832-0.442,1.656-0.615,2.495l-0.542,2.512
					c-0.176,0.838-0.305,1.685-0.46,2.528c-0.165,0.842-0.281,1.691-0.376,2.542c-0.094,0.851-0.236,1.7-0.29,2.555l-0.172,2.567
					c-0.081,0.856-0.033,1.714-0.055,2.573c-0.009,0.859-0.027,1.72,0.06,2.575l0.162,2.579l-0.341-2.564
					c-0.134-0.855-0.163-1.718-0.201-2.582c-0.024-0.863-0.119-1.728-0.085-2.592l0.072-2.595c0.026-0.866,0.141-1.724,0.207-2.587
					c0.067-0.864,0.156-1.725,0.294-2.58c0.128-0.856,0.231-1.717,0.38-2.57l0.503-2.548c0.165-0.85,0.398-1.685,0.593-2.528
					c0.193-0.844,0.422-1.679,0.662-2.511c0.236-0.833,0.459-1.67,0.73-2.491c0.268-0.823,0.505-1.656,0.798-2.471
					c0.292-0.814,0.549-1.642,0.87-2.446c0.317-0.806,0.617-1.618,0.957-2.414c0.654-1.606,1.357-3.18,2.131-4.749l0.066,0.508
					l-3.703-4.197l-0.323-0.366l0.398-0.266l5.812-3.878l-0.129,0.322c-0.383-2.035-0.773-4.068-1.126-6.109
					C454.138,207.248,453.767,205.211,453.432,203.167z"/>
			</g>
			<path style="fill:#E2404D;" d="M424.368,421.625c0,0,0.383,2.107-1.532,3.715c-1.462,1.228-6.129,6.435-8.153,9.369
				c-0.566,0.82-1.688,1.021-2.506,0.451l0,0c0,0-1.634,1.113-3.702,2.453c-1.018,0.66-1.76,1.644-1.701,2.01
				c0.082,0.507,0.516,0.754,0.815,0.753c1.948-0.004,4.466,0.003,4.466,0.003c1.897,0,3.872,0.086,4.895-1.511l1.94-2.998
				c1.636-2.555,3.135-4.46,5.835-5.845c0.008-0.004,0.016-0.008,0.024-0.013C426.595,429.016,428.195,426.199,424.368,421.625z"/>
			<path style="fill:#218AFF;" d="M463.716,259.023h-30.048c-0.777,0-1.392-0.657-1.34-1.432l2.932-44.156
				c0.047-0.706,0.633-1.254,1.34-1.254h34.079c0.825,0,1.456,0.737,1.327,1.553l-6.963,44.156
				C464.939,258.542,464.377,259.023,463.716,259.023z"/>
			<path style="fill:#5AB8FF;" d="M448.839,214.844c-0.153,0.57-0.698,1.031-1.219,1.031s-0.819-0.462-0.666-1.031
				c0.153-0.57,0.698-1.031,1.219-1.031S448.992,214.274,448.839,214.844z"/>
			
				<line style="fill:none;stroke:#5AB8FF;stroke-width:0.5;stroke-miterlimit:10;" x1="447.897" y1="214.844" x2="460.688" y2="214.844"/>
			<path style="fill:#5AB8FF;" d="M461.63,214.844c-0.153,0.57-0.698,1.031-1.219,1.031s-0.819-0.462-0.666-1.031
				c0.153-0.57,0.698-1.031,1.219-1.031C461.484,213.813,461.783,214.274,461.63,214.844z"/>
			<path style="fill:#E5918F;" d="M443.2,235.66c0.37,0.29-0.66,1-1.36,1.43c-0.02,0.02-0.06,0.03-0.08,0.04
				c0.02,0.02,0.05,0.03,0.07,0.04c0.37,0.29-0.65,0.99-1.36,1.43c-0.71,0.44-2.82,1.23-2.82,1.23l-2.6,0.65v-0.01
				c-0.54,0.16-1.25,0.39-1.91,0.62c-0.66,0.22-1.26,0.45-1.57,0.59c-6.06,3.61-23.53,13.45-26.95,9.04
				c-0.26-0.33-0.48-0.7-0.65-1.11c-0.12-1.17-0.01-2.26,0.53-3.32c3.57-7.03,11.86-7.57,13.47-7.6c0,0,5.4-0.42,10.57-1.49
				c0.66-0.14,1.9-0.52,2.83-0.82c0-0.01,0.01-0.03,0.01-0.03s0.99-2.37,1.22-2.79c0.23-0.42,1.41-1.28,1.41-1.28l-0.13,1.87
				c0,0,2.12-0.15,3.16-0.27c1.03-0.13,3.67-1.16,4.42-1.16s0.86,0.53,0,1.09c-0.5,0.33-3.96,1.91-3.96,1.91
				c0.17-0.04,2.81-1.06,3.75-1.52c0.94-0.46,1.71-0.84,2.21-0.53c0.4,0.24-0.53,1.06-1.18,1.58c-0.17,0.13-0.43,0.29-0.71,0.47
				C442.26,235.49,442.83,235.38,443.2,235.66z"/>
			<g>
				<path style="fill:#AF2536;" d="M401.006,244.646c0,0,0.289-0.724,1.055-1.602c0.388-0.428,0.866-0.912,1.441-1.357
					c0.573-0.446,1.229-0.861,1.913-1.22c0.349-0.165,0.688-0.354,1.044-0.488c0.353-0.14,0.694-0.293,1.041-0.396
					c0.683-0.236,1.339-0.39,1.901-0.51c0.556-0.146,1.042-0.162,1.37-0.221c0.332-0.038,0.522-0.06,0.522-0.06
					s-0.183,0.057-0.502,0.156c-0.319,0.099-0.78,0.211-1.317,0.398c-0.27,0.088-0.561,0.183-0.87,0.284
					c-0.302,0.117-0.621,0.24-0.951,0.367c-0.335,0.112-0.656,0.289-0.999,0.425c-0.345,0.135-0.669,0.325-1.006,0.489
					c-1.338,0.678-2.558,1.56-3.384,2.329c-0.403,0.393-0.737,0.729-0.941,0.991C401.113,244.487,401.006,244.646,401.006,244.646z"
					/>
			</g>
			<g>
				<path style="fill:#AF2536;" d="M477.625,226.563c0,0-0.46,0.48-0.984,1.305c-0.278,0.401-0.538,0.911-0.826,1.445
					c-0.266,0.547-0.551,1.131-0.787,1.737c-0.254,0.598-0.47,1.213-0.669,1.791c-0.197,0.579-0.379,1.122-0.512,1.596
					c-0.139,0.474-0.255,0.868-0.336,1.144c-0.086,0.277-0.136,0.435-0.136,0.435s0.015-0.165,0.04-0.453
					c0.043-0.285,0.053-0.705,0.157-1.19c0.091-0.488,0.193-1.062,0.365-1.661c0.162-0.602,0.376-1.234,0.628-1.852
					c0.252-0.617,0.553-1.216,0.865-1.758c0.326-0.536,0.664-1.014,0.985-1.399C477.055,226.924,477.625,226.563,477.625,226.563z"
					/>
			</g>
		</g>
		<g>
			<polygon style="fill:#3945BA;" points="276.523,315.062 248.556,440.363 243.945,440.363 267.833,315.062 			"/>
			<polygon style="fill:#3945BA;" points="483.812,315.062 511.779,440.363 516.39,440.363 492.502,315.062 			"/>
			<rect x="266.077" y="325.306" style="fill:#3945BA;" width="226.425" height="4.527"/>
			<path style="fill:#F5F7FF;" d="M522.8,315.062H244.804c-1.698,0-3.074-1.376-3.074-3.074l0,0c0-1.697,1.376-3.073,3.074-3.073
				H522.8c1.698,0,3.074,1.376,3.074,3.073l0,0C525.873,313.686,524.497,315.062,522.8,315.062z"/>
		</g>
		<g>
			<g>
				<polygon style="fill:#8E9AEE;" points="177.443,440.46 182.019,440.46 191.544,360.086 182.751,360.086 				"/>
				<polygon style="fill:#8E9AEE;" points="242.447,440.46 237.87,440.46 228.346,360.086 237.138,360.086 				"/>
				<path style="fill:#C4C9FC;" d="M165.636,257.145h-24.179c-5.743,0-10.13,5.127-9.242,10.801l14.804,94.602h27.961
					L165.636,257.145z"/>
				<polygon style="fill:#C4C9FC;" points="141.718,440.46 146.295,440.46 155.82,360.086 147.027,360.086 				"/>
				<polygon style="fill:#C4C9FC;" points="206.723,440.46 202.146,440.46 192.622,360.086 201.414,360.086 				"/>
				<path style="fill:#C4C9FC;" d="M151.345,366.872h84.14c2.389,0,4.325-1.936,4.325-4.325l0,0c0-2.389-1.937-4.325-4.325-4.325
					h-84.14c-2.389,0-4.326,1.936-4.326,4.325l0,0C147.019,364.936,148.956,366.872,151.345,366.872z"/>
			</g>
			<g>
				<path style="fill:#FFFFFF;" d="M229.768,440.325h-27.165c0,0-1.518-4.837,1.772-10.83c0,0,2.186,1.753,8.736,0.568
					c0,0,2.733,2.32,4.621,3.228C219.63,434.209,230.501,436.343,229.768,440.325z"/>
				<path style="fill:#162842;" d="M227.874,363.728c-1.755,10.469-9.85,45.887-13.331,66.812
					c-6.361,0.542-9.415-0.188-11.035-0.561c0.317-7.296,0.945-24.749,0.871-32.403c-0.121-12.935-0.728-29.993,4.966-39.354
					l19.147,1.507c-0.116,1.011-0.222,1.833-0.316,2.421C228.085,362.714,227.979,363.235,227.874,363.728z"/>
				<path style="fill:#FFFFFF;" d="M278.903,440.325h-27.165c0,0-1.518-4.837,1.772-10.83c0,0,2.186,1.753,8.736,0.568
					c0,0,2.733,2.32,4.621,3.228C268.764,434.209,279.635,436.343,278.903,440.325z"/>
				<path style="fill:#0D1D30;" d="M263.033,429.928c-5.19,1.285-8.95,1.159-10.73,0.959c-1.445-8.41-3.726-26.915-5.78-35.589
					c-3.186-13.483-6.305-32.024-4.138-38.64l18.834-4.73C261.282,352.523,262.815,409.271,263.033,429.928z"/>
				<path style="fill:#0D1D30;" d="M188.075,332.621L188.075,332.621c0.378-3.722,0.814-6.441,0.814-6.441l21.043,5.15l17.874,4.073
					c6.627,1.476,14.632,3.254,21.689,4.848c7.919,1.799,13.177,7.815,11.442,15.744l-1.985,9.619
					c-11.076-0.151-63.152-5.143-67.606-7.393C186.313,355.681,184.798,346.695,188.075,332.621z"/>
				<path style="fill:#162842;" d="M156.663,332.621L156.663,332.621c0.378-3.722,2.193-7.716,2.193-7.716l19.663,6.425
					l17.875,4.073c6.626,1.476,14.632,3.254,21.688,4.848c7.919,1.799,13.176,7.815,11.442,15.744l-1.985,9.619
					c-11.076-0.151-57.371-1.765-67.606-7.393C154.993,355.506,153.386,346.695,156.663,332.621z"/>
				<g>
					<path style="fill:#E5918F;" d="M215.56,302.464c0,0-9.346-4.222-11.918,0.013c-1.408,2.318-0.434,6.624,2.754,8.431
						c3.187,1.807,21.2,9.426,38.201,13.674c0,0,0.727-2.365,1.897-4.85c0,0-7.627-3.164-15.209-8.489
						C223.702,305.918,215.56,302.464,215.56,302.464L215.56,302.464z"/>
				</g>
				<path style="fill:#E6E9FF;" d="M210.807,274.78l8.01,31.994c0,0-0.828,8.088-8.996,4.118
					c-8.169-3.97-13.582-29.458-13.582-29.458L210.807,274.78z"/>
				<path style="fill:#3945BA;" d="M214.634,285.27c0,0-1.816,1.64-9.376,4.25c-0.87,0.3-1.78,0.6-2.74,0.88
					c-0.91,0.27-1.85,0.53-2.85,0.77l1.72-18.61l0.09-0.99l0.95-16.71c0.23,0.16,0.44,0.31,0.67,0.47c2.21,1.58,4.19,3.5,5.57,5.8
					C208.748,261.24,212.355,274.292,214.634,285.27z"/>
				<path style="fill:#253793;" d="M205.258,289.52c-0.87,0.3-1.78,0.6-2.74,0.88c-0.91,0.27-1.85,0.53-2.85,0.77l1.72-18.61
					l0.8-1.18C202.188,271.38,204.228,281.88,205.258,289.52z"/>
				<path style="fill:#182B51;" d="M204.075,220.462c0,0-0.541,2.893-1.094,5.407l-2.386,1.503c-0.1-2.8,0.46-6.55,0.46-6.55
					L204.075,220.462z"/>
				<path style="fill:#3945BA;" d="M204.478,331.01c-1.31,1.75-11.77,2.85-18.73,2.85c-7.83,0-23.41-0.33-27.42-2.65
					c-0.37-0.2-1.31-0.97-1.31-1.7c0-1.04,0.19-2.36,0.96-4.9c1.08-3.55,0.85-10.98,0.04-19.53c-0.33-3.43-0.74-7.05-1.2-10.66
					c-1.81-14.3-4.29-28.67-4.43-32.13c1.2-2.09,2.55-3.8,3.86-5.19c3.93-4.2,7.71-5.62,8.28-5.8c0.03-0.01,0.06-0.02,0.06-0.02
					c5.82-1.58,12.36-2.56,16.39-2.68c2.38-0.08,4.57-0.04,6.57,0.09c0,0,0.01,0,0.05,0.01c0.66,0.14,8.48,1.86,14.83,6.16
					c0.23,0.16,0.44,0.31,0.67,0.47c0.75,5-0.31,18.87-0.58,35.07c0,0.27-0.01,0.53-0.01,0.8c-0.16,10.5-1.07,18.09,1.5,32.63
					C204.578,327.07,205.688,329.39,204.478,331.01z"/>
				<path style="fill:#253793;" d="M165.278,278.5c0,0-5.01,24.83-5.01,28.83l-2.25-2.25c-0.33-3.43-0.74-7.05-1.2-10.66
					L165.278,278.5z"/>
				<path style="fill:#E6E9FF;" d="M188.479,258.763c-11.32,1.35-13.889-8.914-12.019-9.794c1.24-0.19,1.579-0.829,1.749-1.469
					c1.64-6.36-0.75-13.367-0.75-13.367l7.67,6.03l4.25,4.01l0.84,0.79c0,0-0.09,2.54-0.02,3.68c0.02,0.3,0.05,0.51,0.1,0.54
					c0.25,0.18,1.687,0.736,1.687,0.736S195.749,257.892,188.479,258.763z"/>
				<path style="fill:#C2CBF9;" d="M190.199,248.643c-5.79-1.51-7.35-8.25-7.35-8.25l6.53,3.78l0.84,0.79
					C190.219,244.962,190.129,247.503,190.199,248.643z"/>
				<path style="fill:#E6E9FF;" d="M202.673,223.769c0,0-1.593,22.031-7.542,23.903c0,0-7.579,0.714-13.021-6.606
					c-1.568-2.109-3.549-2.583-4.196-5.13c-1.051-4.136-2.534-11.766-0.642-16.364C179.966,213.023,204.075,207.604,202.673,223.769
					z"/>
				<path style="fill:#182B51;" d="M176.772,207.75c4.881-2.216,8.181-0.228,8.181-0.228s2.618-5.529,8.978-4.23
					c6.359,1.3,5.398,6.779,5.398,6.779s6.621-2.23,8.743,3.846c2.121,6.076-3.494,8.273-6.823,8.414
					c-1.601,0.068-8.599-0.268-13.376-0.185c-0.953,0.016-1.744,0.734-1.861,1.68c-0.127,1.026-0.276,1.948-0.422,2.183
					c-0.366,0.592-2.275,1.913-2.326,2.897c0,0.003-0.001,0.002-0.001,0.002c0.058,1.26,0.038,2.26-0.256,2.443
					c-0.833,0.521-4.262,0.428-5.993,0.259c-1.238-0.121-2.245-5.531-2.798-9.314C173.913,220.251,170.935,210.4,176.772,207.75z"/>
				<g>
					<path style="fill:#E6E9FF;" d="M180.265,235.689c-3.866,2.364-7.06-7.637-3.193-8.822c2.932-0.899,3.828,3.259,3.828,3.259
						S182.472,234.34,180.265,235.689z"/>
					<path style="fill:#C2CBF9;" d="M179.817,231.395l0.007-0.004c0,0-0.006-0.008-0.007-0.01c-0.01-0.296-0.047-0.601-0.127-0.905
						c-0.11-0.387-0.286-0.762-0.515-1.069c-0.222-0.312-0.502-0.544-0.753-0.705c-0.523-0.313-0.927-0.316-0.927-0.316
						s0.321,0.227,0.652,0.638c0.329,0.404,0.657,0.978,0.823,1.628c-0.114-0.063-0.228-0.13-0.354-0.172
						c-0.355-0.124-0.721-0.143-0.983-0.114c-0.264,0.024-0.427,0.084-0.427,0.084s0.174-0.014,0.423,0.032
						c0.249,0.04,0.566,0.15,0.824,0.331c0.262,0.176,0.454,0.418,0.565,0.614c0.115,0.194,0.166,0.336,0.166,0.336l0.003-0.002
						c0.039,0.292,0.058,0.572,0.083,0.819c0.022,0.278,0.04,0.51,0.052,0.673c0.014,0.166,0.032,0.264,0.032,0.264
						s0.046-0.085,0.11-0.24c0.05-0.157,0.172-0.377,0.229-0.659c0.069-0.281,0.133-0.616,0.133-0.985
						C179.83,231.555,179.819,231.474,179.817,231.395z"/>
				</g>
				<path style="fill:#E6E9FF;" d="M140.329,306.68c0,0,0,0,0.001,0.011c1.86,2.158,8.917,3.73,12.313,0.746
					c1.067-0.951,2.271-3.456,3.454-6.564c3.011-7.948,5.861-19.837,5.861-19.837l-15.793-8.07c0,0-2.032,9.11-3.782,17.767
					c0,0-0.015,0.087-0.048,0.241c-0.57,2.773-1.1,5.501-1.517,7.841c-0.017,0.066-0.024,0.121-0.03,0.186
					C140.371,301.795,140.103,304.709,140.329,306.68z"/>
				<path style="fill:#3945BA;" d="M167.922,269.973c-1.525,6.342-6.319,18.36-6.319,18.36c-3.358,0.557-7.622-0.73-11.273-2.276
					c-4.369-1.879-7.111-3.625-7.111-3.625s2.589-9.231,5.442-15.65c2.561-5.763,4.214-7.813,5.207-9.056
					c3.571-4.468,8.983-5.962,10.722-6.446L167.922,269.973z"/>
				<g>
					<path style="fill:#E6E9FF;" d="M140.329,306.68c0,0,0,0,0.001,0.011c0.136,1.157,0.454,1.988,1.026,2.282
						c0.091,0.059,1.388,0.831,1.478,0.889c1.931,1.18,5.433,3.189,9.789,5.062c10.564,4.564,25.911,9.857,34.184,12.283
						c0,0,0.817-2.337,2.091-4.772c0,0-7.484-3.475-14.84-9.11c-7.366-5.623-17.962-12.453-17.962-12.453l-2.675-3.148
						c0,0-9.512-8.754-11.039-6.993c0,0-0.015,0.087-0.048,0.241c-0.227,0.913-0.982,4.271-1.517,7.841
						c-0.017,0.066-0.024,0.121-0.03,0.186C140.371,301.795,140.103,304.709,140.329,306.68z"/>
				</g>
				<polygon style="fill:#218AFF;" points="168.982,336.165 186.887,336.165 180.575,340.188 				"/>
				<path style="fill:#76BEFF;" d="M168.481,338.461l12.701,2.77l0.501-2.297l-12.701-2.77c-0.635-0.138-1.261,0.263-1.399,0.898
					l0,0C167.445,337.697,167.847,338.323,168.481,338.461z"/>
				<path style="fill:#76BEFF;" d="M181.393,341.263h60.154c0.72,0,1.352-0.48,1.545-1.174l12.312-44.321
					c0.272-0.981-0.465-1.952-1.483-1.952h-58.17c-1.356,0-2.545,0.904-2.908,2.21l-12.267,44.161
					C180.425,340.728,180.831,341.263,181.393,341.263z"/>
				<path style="fill:#218AFF;" d="M183.569,341.263h60.154c0.72,0,1.352-0.48,1.545-1.174l12.312-44.321
					c0.272-0.981-0.465-1.952-1.483-1.952h-58.17c-1.356,0-2.545,0.904-2.908,2.21l-12.267,44.161
					C182.602,340.728,183.008,341.263,183.569,341.263z"/>
			</g>
		</g>
		<g>
			<path style="fill:#3945BA;" d="M585.626,440.649h-58.495v-3.003c0-2.842,2.304-5.146,5.146-5.146h48.202
				c2.842,0,5.146,2.304,5.146,5.146V440.649z"/>
			<rect x="552.604" y="221.3" style="fill:#3945BA;" width="7.549" height="219.349"/>
			<g>
				<polygon style="fill:#3945BA;" points="601.641,298.747 493.698,298.747 490.905,293.962 530.64,160.878 635.79,156.093 
					638.583,160.878 				"/>
				<polygon style="fill:#9CA8FF;" points="598.848,293.962 490.905,293.962 527.847,156.093 635.79,156.093 				"/>
				<polygon style="fill:#B8C7FF;" points="521.745,285.966 505.367,285.966 521.695,225.028 538.074,225.028 				"/>
				<polygon style="fill:#B8C7FF;" points="544.054,285.966 527.675,285.966 549.762,203.536 566.141,203.536 				"/>
				<polygon style="fill:#B8C7FF;" points="566.363,285.966 549.984,285.966 559.477,250.538 575.855,250.538 				"/>
				<polygon style="fill:#B8C7FF;" points="588.671,285.966 572.293,285.966 600.312,181.396 616.691,181.396 				"/>
				<polygon style="fill:#B8C7FF;" points="564.217,167.396 537.137,167.396 537.718,165.23 564.798,165.23 				"/>
				<polygon style="fill:#B8C7FF;" points="563.347,170.646 536.267,170.646 536.847,168.48 563.927,168.48 				"/>
				<polygon style="fill:#B8C7FF;" points="562.476,173.896 535.396,173.896 535.976,171.73 563.056,171.73 				"/>
				<polygon style="fill:#B8C7FF;" points="550.903,177.146 534.525,177.146 535.105,174.98 551.484,174.98 				"/>
				<polygon style="fill:#B8C7FF;" points="583.968,232.561 562.247,232.561 562.713,230.823 584.433,230.823 				"/>
				<polygon style="fill:#B8C7FF;" points="583.269,235.167 561.549,235.167 562.015,233.43 583.735,233.43 				"/>
				<polygon style="fill:#B8C7FF;" points="582.571,237.774 560.851,237.774 561.316,236.036 583.036,236.036 				"/>
				<polygon style="fill:#B8C7FF;" points="573.289,240.381 560.152,240.381 560.618,238.643 573.755,238.643 				"/>
			</g>
		</g>
		<g>
			<g>
				<path style="fill:#218AFF;" d="M492.668,308.915l-10.497-26.914c-0.529-1.357-1.837-2.251-3.294-2.251h-44.877
					c-1.171,0-1.975,1.177-1.55,2.268l10.49,26.897H492.668z"/>
				<path style="fill:#43A6FF;" d="M491.083,307.54h-45.68l-9.42-24.16c-0.39-1,0.34-2.08,1.42-2.08h41.22
					c1.34,0,2.54,0.82,3.03,2.07L491.083,307.54z"/>
				<polygon style="fill:#5AB8FF;" points="459.565,291.938 442.259,291.938 438.799,283.167 456.105,283.167 				"/>
				<polygon style="fill:#5AB8FF;" points="483.44,293.654 462.749,293.654 458.612,283.167 479.304,283.167 				"/>
				<polygon style="fill:#5AB8FF;" points="484.851,297.217 464.161,297.217 463.321,295.087 484.011,295.087 				"/>
				<polygon style="fill:#5AB8FF;" points="486.205,300.877 465.515,300.877 464.675,298.747 485.365,298.747 				"/>
				<polygon style="fill:#5AB8FF;" points="463.48,302.172 446.174,302.172 442.715,293.401 460.021,293.401 				"/>
			</g>
			<g>
				<path style="fill:#E6E9FF;" d="M551.424,253.893c-1.23-0.18-1.6-1.15-1.77-1.79c-1.62-6.31,0.4-16.31,0.4-16.31l-7.61,5.99
					c0,0-5.784,4.089-5.894,4.499l-0.276,6.731l-0.01-0.01C535.712,264.409,552.954,254.613,551.424,253.893z"/>
				<path style="fill:#E6E9FF;" d="M527.338,225.575c-0.071,3.65-0.054,13.456,1.938,19.089c0.93,2.629,3.549,4.265,6.324,3.983
					c2.711-0.275,6.572-1.4,10.057-5.106c1.785-1.898,3.791-2.139,4.72-4.573c1.508-3.955,3.841-11.301,2.503-16.047
					c-1.826-6.477-21.669-13.807-25.144-0.607C527.456,223.376,527.359,224.475,527.338,225.575z"/>
				<path style="fill:#192C51;" d="M547.524,214.018c-6.521-3.527-17.458,0.42-25.958,4.42c0.544,5.499,5.912,7.959,9.685,7.154
					c0.566,2.66,0.042,6.206,1.982,8.291c1.105,1.188,3.233,1.465,5.442,1.355c0.208,0.538,1.274,7.638,2.329,10.649h9.083
					c0.142-0.477,6.098-10.807,7.016-18.365C557.941,220.625,556.08,214.018,547.524,214.018z"/>
				<g>
					<path style="fill:#E6E9FF;" d="M535.524,239.566c3.264,2.08,5.306-8.028,2.105-8.942c-2.427-0.693-2.926,3.481-2.926,3.481
						S533.66,238.378,535.524,239.566z"/>
					<path style="fill:#C2CBF9;" d="M537.341,234.132c-0.232-0.004-0.551,0.066-0.839,0.229c-0.063,0.036-0.113,0.086-0.171,0.129
						c0.095-0.626,0.289-1.213,0.527-1.633c0.237-0.448,0.512-0.703,0.512-0.703s-0.384,0.069-0.81,0.467
						c-0.429,0.388-0.799,1.108-0.902,1.86c-0.041,0.278-0.046,0.552-0.037,0.818c-0.002,0.003-0.013,0.022-0.013,0.022l0.014,0.005
						c0.017,0.441,0.085,0.854,0.181,1.178c0.067,0.266,0.181,0.474,0.232,0.623c0.063,0.147,0.108,0.228,0.108,0.228
						s0.013-0.094,0.019-0.253c0.005-0.156,0.011-0.38,0.019-0.648c0.015-0.265,0.009-0.568,0.034-0.888l0.008,0.003
						c0,0,0.029-0.131,0.099-0.319c0.065-0.191,0.192-0.428,0.38-0.625c0.188-0.193,0.442-0.336,0.652-0.392
						c0.21-0.062,0.362-0.057,0.362-0.057S537.573,234.13,537.341,234.132z"/>
				</g>
			</g>
			<path style="fill:#E6E9FF;" d="M467.378,300.542c0,0-2-0.083-3.75-0.375c-1.75-0.292-3.333-1.25-6.25-1.417
				c-2.917-0.167-11.125,6.625-11.708,7.542c-0.583,0.917,0.625,1.375,1.5,1.208s4.542-1.625,4.542-1.625s-0.458,0.417,3.375,1.375
				c3.833,0.958,6.375-0.75,7.583-0.708c1.208,0.042,3.958,0.417,3.958,0.417L467.378,300.542z"/>
			<path style="fill:#18004D;" d="M494.41,440.555h26.939c0,0,1.506-4.797-1.757-10.74c0,0-2.168,1.739-8.663,0.563
				c0,0-2.711,2.301-4.582,3.201C504.465,434.489,493.684,436.607,494.41,440.555z"/>
			<path style="fill:#18004D;" d="M445.684,440.555h26.939c0,0,1.505-4.797-1.757-10.74c0,0-2.168,1.739-8.663,0.563
				c0,0-2.711,2.301-4.582,3.201C455.739,434.489,444.958,436.607,445.684,440.555z"/>
			<path style="fill:#2D3A70;" d="M566.439,331.124c-0.375-3.691-1.706-5.029-1.706-5.029l-19.5,6.372l-17.726,4.039
				c-6.571,1.464-14.51,3.227-21.508,4.808c-7.853,1.784-13.067,7.75-11.347,15.613l1.968,9.539h0.001
				c2.251,12.214,9.619,44.737,12.888,64.385c6.308,0.537,9.337-0.187,10.943-0.557c-0.314-7.235-0.073-24.145,0-31.735
				c0.094-10.106,0.343-24.755-2.087-34.31c16.357-0.629,35.103-2.018,43.625-6.625
				C572.072,352.175,566.439,331.124,566.439,331.124z"/>
			<path style="fill:#24315D;" d="M549.018,333.747c-0.375-3.691-1.093-5.563-1.093-5.563s-20.775,1.417-30.607,3.388
				c-14.823,2.972-34.914,7.204-42.469,9.741c-6.244,2.097-11.009,5.95-11.599,11.585l-0.028-0.006
				c-0.062,0.591-1.583,56.867-1.799,77.352c5.147,1.274,8.876,1.15,10.641,0.951c1.433-8.34,5.749-26.533,7.599-35.177
				c2.192-10.24,4.969-22.451,5.502-30.884c19.102-1.663,52.577-5.457,55.964-5.634
				C553.128,358.875,549.018,333.747,549.018,333.747z"/>
			<path style="fill:#FFFFFF;" d="M566.188,303.18c-0.42,6.91-3.8,12.09-0.59,22.62c0.76,2.52,0.95,3.82,0.95,4.86
				c0,0.73-0.92,1.48-1.3,1.69c-3.97,2.29-19.42,2.63-27.19,2.63c-6.07,0-14.81-0.85-17.72-2.24c-0.4-0.19-0.69-0.39-0.85-0.6
				c-1.2-1.6-0.1-3.91,0.47-7.11c2.54-14.43,1.64-21.95,1.48-32.37c0-0.26-0.01-0.52-0.01-0.79v-0.2c-0.01,0-0.01,0-0.01,0
				c-0.82-0.12-1.6-0.27-2.28-0.41c-1.12-0.25-1.98-0.5-2.35-0.62c-8.38-2.63-9.63-5.32-9.63-5.32c2.37-10.31,5.23-17.23,7.78-21.8
				c0.06-0.11,0.12-0.22,0.19-0.34c0.06-0.11,0.13-0.23,0.2-0.34c1.37-2.27,3.34-4.18,5.53-5.75c0.22-0.16,0.43-0.31,0.66-0.47
				c0,0,0.04-0.03,0.13-0.09c0.13-0.08,0.26-0.17,0.39-0.25c0.06-0.03,0.12-0.07,0.19-0.11c1.71-1,6.54-3.34,15.15-4.17
				c10.49-1.01,20.67,0.89,21.66,1.08c0,0,0.04,0.01,0.07,0.02c0.01,0,0.01,0,0.01,0c0.58,0.19,4.32,1.6,8.19,5.75
				c1.31,1.37,2.64,3.07,3.84,5.15c1.144,3.563,1.493,10.875-2.46,28.14C568.348,293.627,566.279,301.74,566.188,303.18z"/>
			<path style="fill:#E3E6ED;" d="M523.628,307.75c-0.58,6.806-4.08,23.82-3.29,24.99c-0.4-0.19-0.69-0.39-0.85-0.6
				c-1.2-1.6-0.1-3.91,0.47-7.11c2.54-14.43,1.64-21.95,1.48-32.37c0-0.26-0.01-0.52-0.01-0.79v-0.2c0.13,0.02,1.4,0.17,3.45,0.41
				C524.878,292.08,524.087,302.375,523.628,307.75z"/>
			<path style="fill:#FFFFFF;" d="M508.15,281.302c0,0-4.791,16.984-5.522,18.823c-6.5-0.125-36.125,0-36.125,0l-1.25,7.5
				c0,0,39.978,7.952,46.708,7.958c4.917,0.004,12.917-23.503,12.917-23.503l-9.25-6.76L508.15,281.302z"/>
			<g>
				<polygon style="fill:#8E9AEE;" points="544.934,440.46 540.358,440.46 530.833,360.086 539.625,360.086 				"/>
				<polygon style="fill:#8E9AEE;" points="479.93,440.46 484.506,440.46 494.031,360.086 485.238,360.086 				"/>
				<path style="fill:#C4C9FC;" d="M581.072,257.145h-24.179h-22.295c-4.578,0-8.289,3.711-8.289,8.289v97.114h21.24h27.961
					l14.804-94.602C591.202,262.271,586.815,257.145,581.072,257.145z"/>
				<polygon style="fill:#C4C9FC;" points="580.658,440.46 576.082,440.46 566.557,360.086 575.35,360.086 				"/>
				<polygon style="fill:#C4C9FC;" points="515.654,440.46 520.23,440.46 529.755,360.086 520.962,360.086 				"/>
				<path style="fill:#C4C9FC;" d="M571.032,366.872h-84.14c-2.388,0-4.325-1.936-4.325-4.325l0,0c0-2.389,1.937-4.325,4.325-4.325
					h84.14c2.389,0,4.325,1.936,4.325,4.325l0,0C575.357,364.936,573.421,366.872,571.032,366.872z"/>
			</g>
		</g>
		<g>
			<g>
				<path style="fill:#B4C1EF;" d="M69.783,356.772c0,0-3.186,1.005-2.115,6.463c1.072,5.458,2.828,6.119,2.069,11.007
					c-0.759,4.888,4.858,8.609,5.762,11.637c0.905,3.028-1.156,8.388,1.289,12.438c1.33,2.203,4.688,3.922,9.094,4.359
					c10.007,0.992,18.092-4.108,20.234-13.059c0.331-1.384,0.485-2.813,0.379-4.25c-0.641-8.624-10.445-8.789-13.174-10.7
					c-2.729-1.911-3.465-9.006-5.825-10.618c-2.361-1.612-4.983,0.77-8.979-2.782C74.521,357.715,72.319,356.003,69.783,356.772z"/>
				<path style="fill:none;stroke:#FFFFFF;stroke-width:1.0828;stroke-linecap:round;stroke-miterlimit:10;" d="M70.184,359.247
					c0,0,29.756,35.019,33.68,62.372"/>
				<path style="fill:none;stroke:#FFFFFF;stroke-width:0.7219;stroke-linecap:round;stroke-miterlimit:10;" d="M71.096,368.043
					c0,0,5.618,1.43,9.495,4.83"/>
				<path style="fill:none;stroke:#FFFFFF;stroke-width:0.7219;stroke-linecap:round;stroke-miterlimit:10;" d="M85.525,365.46
					c0,0-2.494,7.277-1.575,12.291"/>
				<path style="fill:none;stroke:#FFFFFF;stroke-width:0.7219;stroke-linecap:round;stroke-miterlimit:10;" d="M75.989,382.868
					c0,0,10.239,1.243,13.611,3.779"/>
				<path style="fill:none;stroke:#FFFFFF;stroke-width:0.7219;stroke-linecap:round;stroke-miterlimit:10;" d="M97.62,380.626
					c0,0-4.334,8.733-4.261,12.612"/>
				<path style="fill:none;stroke:#FFFFFF;stroke-width:0.7219;stroke-linecap:round;stroke-miterlimit:10;" d="M80.539,397.305
					c0,0,8.326-1.669,14.627-0.616"/>
				<path style="fill:none;stroke:#FFFFFF;stroke-width:0.7219;stroke-linecap:round;stroke-miterlimit:10;" d="M86.446,374.345
					c0,0-0.865,3.71-0.826,5.933"/>
			</g>
			<g>
				<path style="fill:#DEE3FC;" d="M124.438,352.264c0,0,3.325,0.33,3.395,5.892c0.07,5.561-1.513,6.569,0.232,11.198
					c1.745,4.628-2.989,9.422-3.253,12.571c-0.264,3.149,2.851,7.973,1.289,12.438c-0.85,2.43-3.784,4.8-8.007,6.131
					c-9.591,3.023-18.55-0.311-22.482-8.632c-0.608-1.287-1.052-2.654-1.242-4.083c-1.142-8.572,8.421-10.744,10.7-13.174
					c2.28-2.43,1.544-9.525,3.524-11.587c1.98-2.061,5.035-0.269,8.217-4.564C119.994,354.159,121.799,352.032,124.438,352.264z"/>
				<path style="fill:none;stroke:#FFFFFF;stroke-width:1.0828;stroke-linecap:round;stroke-miterlimit:10;" d="M124.553,354.77
					c0,0-21.943,40.376-20.174,67.953"/>
				<path style="fill:none;stroke:#FFFFFF;stroke-width:0.7219;stroke-linecap:round;stroke-miterlimit:10;" d="M125.465,363.566
					c0,0-5.206,2.551-8.303,6.675"/>
				<path style="fill:none;stroke:#FFFFFF;stroke-width:0.7219;stroke-linecap:round;stroke-miterlimit:10;" d="M110.813,363.996
					c0,0,3.933,6.611,4.062,11.707"/>
				<path style="fill:none;stroke:#FFFFFF;stroke-width:0.7219;stroke-linecap:round;stroke-miterlimit:10;" d="M123.716,379.079
					c0,0-9.766,3.316-12.547,6.489"/>
				<path style="fill:none;stroke:#FFFFFF;stroke-width:0.7219;stroke-linecap:round;stroke-miterlimit:10;" d="M102.084,381.32
					c0,0,6.033,7.658,6.757,11.47"/>
				<path style="fill:none;stroke:#FFFFFF;stroke-width:0.7219;stroke-linecap:round;stroke-miterlimit:10;" d="M122.222,394.142
					c0,0-8.492,0.073-14.443,2.397"/>
				<path style="fill:none;stroke:#FFFFFF;stroke-width:0.7219;stroke-linecap:round;stroke-miterlimit:10;" d="M111.733,372.881
					c0,0,1.608,3.454,2.026,5.637"/>
			</g>
			<g>
				<polygon style="fill:#DEE3FC;" points="114.847,440.649 91.75,440.649 86.933,407.242 119.664,407.242 				"/>
				<polygon style="fill:#B4C1EF;" points="86.933,407.242 87.464,410.925 118.666,414.162 119.664,407.242 				"/>
				<rect x="84.8" y="403.912" style="fill:#DEE3FC;" width="36.997" height="5.135"/>
			</g>
		</g>
		<g>
			
				<path style="fill:none;stroke:#FFFFFF;stroke-width:1.3186;stroke-linecap:round;stroke-linejoin:round;stroke-miterlimit:10;" d="
				M419.696,132.124h-50.018c-2.725,0-4.935,2.209-4.935,4.935v13.191c0,2.725,2.209,4.935,4.935,4.935h38.805l7.165,7.165v-7.165
				h4.048c2.725,0,4.935-2.209,4.935-4.935v-13.191C424.631,134.333,422.421,132.124,419.696,132.124z"/>
			
				<line style="fill:none;stroke:#FFFFFF;stroke-width:1.3186;stroke-linecap:round;stroke-miterlimit:10;" x1="372.216" y1="138.412" x2="410.556" y2="138.412"/>
			
				<line style="fill:none;stroke:#FFFFFF;stroke-width:1.3186;stroke-linecap:round;stroke-miterlimit:10;" x1="372.216" y1="143.654" x2="416.499" y2="143.654"/>
			
				<line style="fill:none;stroke:#FFFFFF;stroke-width:1.3186;stroke-linecap:round;stroke-miterlimit:10;" x1="372.216" y1="148.896" x2="388.092" y2="148.896"/>
		</g>
		<g>
			<polygon style="opacity:0.3;fill:#B8C7FF;" points="633.333,241.189 633.333,263.957 651.873,263.957 651.873,241.189 
				660.628,241.189 642.603,216.827 624.578,241.189 			"/>
			<polygon style="opacity:0.3;fill:#B8C7FF;" points="526.198,136.494 526.198,147.878 535.468,147.878 535.468,136.494 
				539.846,136.494 530.833,124.313 521.821,136.494 			"/>
		</g>
		
			<line style="fill:none;stroke:#FFFFFF;stroke-width:1.1144;stroke-linecap:round;stroke-miterlimit:10;" x1="47.16" y1="440.363" x2="697.379" y2="440.363"/>
	</g>
</g>
</svg>
