<?xml version="1.0" encoding="utf-8"?>
<!-- Generator: Adobe Illustrator 27.5.0, SVG Export Plug-In . SVG Version: 6.00 Build 0)  -->
<svg version="1.1" xmlns="http://www.w3.org/2000/svg" xmlns:xlink="http://www.w3.org/1999/xlink" x="0px" y="0px"
	 viewBox="0 0 3710 3710" style="enable-background:new 0 0 3710 3710;" xml:space="preserve">
<g id="Background">
	<g>
		<g>
			<rect style="fill:#FFFFFF;" width="3710" height="3710"/>
		</g>
	</g>
</g>
<g id="Illustration">
	<g>
		<path style="fill:#F4F7FA;" d="M3090.563,1232.305c71.202-648.514-557.527-873.819-1003.247-707.772
			c-449.337,167.394-553.509-110.092-1185.345-30.809C262.202,574,587.022,1578.276,587.022,1578.276s101.797,873.28,222.4,1275.813
			c119.95,400.355,1268.126,255.509,1547.438,243.562c277.704-11.879,519.013,11.049,760.628-428.538
			C3358.66,2230.326,3019.597,1878.669,3090.563,1232.305z"/>
		<g>
			<g>
				<g>
					<defs>
						<path id="SVGID_1_" d="M2431.279,480.599c-39.947-27.873-98.069-40.069-146.31-39.527
							c-341.966,3.843-333.197,718.568-268.043,873.106c65.154,154.538,35.676,209.465-225.258,314.551
							s-119.34,254.521-79.013,345.4c40.326,90.878,111.442,164.602-76.117,273.603c-187.559,109-114.995,161.025-114.995,161.025
							s390.225,338.642,360.656,222.386c-29.569-116.256-8.169-297.22,313.465-337.255
							c138.535-17.245,345.968-101.047,380.88-253.77c8.13-35.563,11.417-89.133,0.12-124.321
							c-15.672-48.813-51.557-85.346-73.543-130.695c-51.236-105.681,48.206-194.328,103.22-272.296
							c28.72-40.704,57.346-82.385,78.169-127.816c43.232-94.322,16.332-189.463-45.637-268.046
							c-29.716-37.682-69.937-76.95-85.375-123.54c-16.583-50.048-11.517-120.704-12.888-173.481
							c-1.076-41.389-0.526-82.755-6.234-123.867C2523.758,619.582,2498.06,527.197,2431.279,480.599z"/>
					</defs>
					
						<linearGradient id="SVGID_00000096032340214858501600000004755954916188078235_" gradientUnits="userSpaceOnUse" x1="2213.3315" y1="285.3453" x2="1910.6688" y2="4690.7432">
						<stop  offset="0" style="stop-color:#FFC444"/>
						<stop  offset="0.9964" style="stop-color:#F36F56"/>
					</linearGradient>
					
						<use xlink:href="#SVGID_1_"  style="overflow:visible;fill:url(#SVGID_00000096032340214858501600000004755954916188078235_);"/>
					<clipPath id="SVGID_00000132767136450648034740000009695341966297879199_">
						<use xlink:href="#SVGID_1_"  style="overflow:visible;"/>
					</clipPath>
					<g style="opacity:0.8;clip-path:url(#SVGID_00000132767136450648034740000009695341966297879199_);">
						<g>
							<path style="fill:#FFFFFF;" d="M1510.214,2617.743c-2.258,1.028-4.985,0.257-6.347-1.899
								c-1.489-2.355-0.787-5.471,1.569-6.958c1.446-0.914,146.444-93.079,304.714-238.253
								c145.834-133.768,333.1-341.189,397.049-569.683c53.41-190.838,90.843-502.141,102.701-854.087
								c10.633-315.594-2.625-547.267-21.585-588.92c-1.155-2.536-0.035-5.526,2.501-6.681c2.536-1.154,5.527-0.035,6.681,2.501
								c22.178,48.724,32.055,309.395,22.485,593.439c-11.884,352.717-49.452,664.886-103.067,856.465
								c-64.605,230.837-253.224,439.839-400.078,574.522c-158.922,145.749-304.56,238.306-306.012,239.223
								C1510.626,2617.539,1510.422,2617.648,1510.214,2617.743z"/>
						</g>
						<g>
							<path style="fill:#FFFFFF;" d="M2314.323,1007.509c-2.523,1.148-5.231,0.641-6.397-1.877
								c-1.545-3.335-156.291-333.909-326.056-397.47c-2.609-0.976-3.865-3.735-2.887-6.344c0.977-2.61,3.916-3.858,6.526-2.881
								c173.646,65.012,325.178,388.649,331.556,402.418c1.17,2.527-0.175,4.986-2.711,6.14
								C2314.343,1007.5,2314.333,1007.505,2314.323,1007.509z"/>
						</g>
						<g>
							<path style="fill:#FFFFFF;" d="M2285.006,1408.023c-1.883,0.857-4.182,0.492-5.708-1.077
								c-1.941-1.998-1.896-5.192,0.102-7.133c0.865-0.841,87.892-85.056,197.752-158.75
								c148.44-99.569,265.671-133.59,348.443-101.118c2.594,1.017,3.87,3.945,2.854,6.538c-1.021,2.594-3.945,3.87-6.539,2.854
								c-190.431-74.705-532.051,254.378-535.479,257.71C2286.003,1407.464,2285.52,1407.789,2285.006,1408.023z"/>
						</g>
						<g>
							<path style="fill:#FFFFFF;" d="M1945.143,2249.679c-0.493,0.224-1.031,0.372-1.601,0.427c-2.772,0.271-5.24-1.757-5.51-4.53
								c-0.144-1.457-14.748-147.549-58.035-299.184c-39.688-139.027-112.206-311.304-232.3-342.507
								c-2.697-0.701-4.314-3.454-3.614-6.151c0.699-2.698,3.455-4.317,6.151-3.614c100.14,26.019,180.72,143.653,239.5,349.633
								c43.519,152.498,58.194,299.376,58.337,300.843C1948.288,2246.799,1947.052,2248.81,1945.143,2249.679z"/>
						</g>
						<g>
							<path style="fill:#FFFFFF;" d="M2133.457,1996.254c-1.976,0.899-4.384,0.444-5.885-1.272
								c-1.835-2.097-1.622-5.284,0.475-7.117c15.201-13.295,374.024-325.42,525.15-310.844c2.774,0.267,4.805,2.733,4.537,5.505
								c-0.267,2.774-2.732,4.807-5.505,4.537c-146.846-14.161-513.85,305.168-517.54,308.394
								C2134.309,1995.79,2133.894,1996.055,2133.457,1996.254z"/>
						</g>
					</g>
				</g>
			</g>
			<g>
				<g>
					<defs>
						<path id="SVGID_00000031920520412350704890000001737231057587673735_" d="M3110.703,793.355
							c-24.81-41.918-72.657-77.097-116.788-96.589c-312.832-138.173-600.949,515.965-605.672,683.61
							s-54.308,205.424-335.331,192.967c-281.024-12.457-214.061,182.211-215.007,281.631
							c-0.946,99.419,33.237,195.981-182.626,217.485c-215.863,21.504-171.373,98.917-171.373,98.917
							s214.869,469.878,236.119,351.818c21.251-118.06,115.699-273.898,425.018-177.088
							c133.231,41.697,356.745,51.361,451.79-73.176c22.133-29,47.317-76.394,51.613-113.101
							c5.958-50.92-11.567-99.036-12.791-149.419c-2.85-117.412,124.381-156.896,206.753-205.068
							c43.003-25.149,86.324-51.225,124.098-83.948c78.423-67.937,93.356-165.673,69.51-262.868
							c-11.435-46.607-31.773-99.01-26.523-147.809c5.641-52.421,39.524-114.63,60.14-163.233
							c16.167-38.116,33.805-75.537,45.642-115.32C3137.294,958.162,3152.179,863.432,3110.703,793.355z"/>
					</defs>
					
						<linearGradient id="SVGID_00000026140125623193118680000007055972687798624420_" gradientUnits="userSpaceOnUse" x1="1480.1154" y1="1609.9824" x2="3136.9536" y2="1609.9824">
						<stop  offset="0" style="stop-color:#FF9085"/>
						<stop  offset="1" style="stop-color:#FB6FBB"/>
					</linearGradient>
					
						<use xlink:href="#SVGID_00000031920520412350704890000001737231057587673735_"  style="overflow:visible;fill:url(#SVGID_00000026140125623193118680000007055972687798624420_);"/>
					<clipPath id="SVGID_00000085968475375823173670000010351723523672792245_">
						<use xlink:href="#SVGID_00000031920520412350704890000001737231057587673735_"  style="overflow:visible;"/>
					</clipPath>
					<g style="opacity:0.8;clip-path:url(#SVGID_00000085968475375823173670000010351723523672792245_);">
						<g>
							<path style="fill:#FFFFFF;" d="M1387.015,2356.89c-2.481,0-4.644-1.831-4.99-4.358c-0.379-2.76,1.55-5.305,4.31-5.683
								c1.695-0.233,171.846-24.046,376.039-90.608c188.149-61.332,444.519-172.534,597.383-354.005
								c127.672-151.564,290.709-419.388,447.307-734.798c140.423-282.832,224.334-499.181,224.334-544.946
								c0-2.787,2.258-5.044,5.044-5.044c2.787,0,5.044,2.258,5.044,5.044c0,53.534-99.002,294.875-225.387,549.432
								c-156.942,316.102-320.459,584.658-448.626,736.811c-154.432,183.331-412.69,295.412-602.145,357.154
								c-205.024,66.815-375.921,90.719-377.622,90.953C1387.474,2356.875,1387.243,2356.89,1387.015,2356.89z"/>
						</g>
						<g>
							<path style="fill:#FFFFFF;" d="M2785.966,1225.829c-2.772,0-5.026-2.264-5.044-5.039
								c-0.025-3.675-3.915-368.995-132.094-497.177c-1.97-1.969-1.97-5.171,0-7.14c1.97-1.97,5.163-1.974,7.133-0.003
								c131.111,131.109,134.95,489.082,135.05,504.256c0.018,2.785-2.225,5.103-5.011,5.103
								C2785.988,1225.829,2785.976,1225.829,2785.966,1225.829z"/>
						</g>
						<g>
							<path style="fill:#FFFFFF;" d="M2593.356,1576.849c-2.069,0-4.01-1.284-4.749-3.345c-0.939-2.622,0.425-5.511,3.048-6.45
								c1.136-0.407,115.232-41.002,245.751-62.56c176.352-29.127,297.144-11.524,359.026,52.322c1.939,2,1.888,5.194-0.112,7.133
								c-2.003,1.938-5.194,1.888-7.133-0.112c-142.372-146.886-589.63,11.102-594.131,12.714
								C2594.496,1576.754,2593.921,1576.849,2593.356,1576.849z"/>
						</g>
						<g>
							<path style="fill:#FFFFFF;" d="M1935.347,2202.082c-0.542,0-1.092-0.089-1.634-0.274c-2.635-0.902-4.041-3.77-3.138-6.406
								c0.473-1.386,47.705-140.401,71.127-296.344c21.475-142.978,26.844-329.817-69.532-407.97
								c-2.164-1.755-2.496-4.931-0.74-7.095c1.754-2.166,4.933-2.498,7.095-0.741c80.363,65.168,104.969,205.615,73.133,417.438
								c-23.568,156.825-71.061,296.586-71.539,297.98C1939.403,2200.763,1937.444,2202.082,1935.347,2202.082z"/>
						</g>
						<g>
							<path style="fill:#FFFFFF;" d="M2211.731,2049.442c-2.171,0-4.174-1.412-4.829-3.596c-0.801-2.668,0.713-5.481,3.381-6.281
								c19.343-5.803,475.233-141.229,606.741-65.353c2.414,1.392,3.241,4.478,1.849,6.89c-1.393,2.414-4.478,3.243-6.89,1.849
								c-127.785-73.724-594.106,64.869-598.8,66.276C2212.698,2049.373,2212.21,2049.442,2211.731,2049.442z"/>
						</g>
					</g>
				</g>
			</g>
		</g>
		<g>
			<g>
				
					<linearGradient id="SVGID_00000021809464207992044830000012726843565242462380_" gradientUnits="userSpaceOnUse" x1="751.2478" y1="1822.149" x2="2588.2234" y2="1822.149">
					<stop  offset="0" style="stop-color:#444B8C"/>
					<stop  offset="0.9964" style="stop-color:#26264F"/>
				</linearGradient>
				<path style="fill:url(#SVGID_00000021809464207992044830000012726843565242462380_);" d="M2532.403,755.319L825.931,656.601
					c-39.303-1.919-74.683,40.971-74.683,76.984v2197.397c0,49.944,51.017,59.997,90.32,55.983l1690.835-172.681
					c30.886-3.154,55.821-31.418,55.821-63.141V815.484C2588.223,783.761,2563.289,756.827,2532.403,755.319z"/>
				<path style="fill:#D8DEE8;" d="M2560.469,737.865L850.626,653.752c-39.303-1.933-71.312,25.915-71.312,62.209v2214.565
					c0,36.294,32.009,62.422,71.312,58.377l1709.843-175.986c30.885-3.179,55.821-31.664,55.821-63.635V798.5
					C2616.29,766.529,2591.354,739.384,2560.469,737.865z"/>
				
					<linearGradient id="SVGID_00000160163473832647225700000008522834823594777767_" gradientUnits="userSpaceOnUse" x1="812.1368" y1="1821.4103" x2="2590.7185" y2="1821.4103">
					<stop  offset="0.0036" style="stop-color:#E38DDD"/>
					<stop  offset="1" style="stop-color:#9571F6"/>
				</linearGradient>
				<path style="opacity:0.3;fill:url(#SVGID_00000160163473832647225700000008522834823594777767_);" d="M850.626,2958.87
					c-21.2,2.141-38.49-12.026-38.49-31.583V717.435c0-19.558,17.29-34.653,38.49-33.652l1709.843,80.768
					c16.696,0.788,30.25,15.502,30.25,32.799v1954.453c0,17.297-13.554,32.739-30.25,34.425L850.626,2958.87z"/>
				<polygon style="fill:#FFFFFF;" points="2450.267,2733.817 987.831,2874.721 987.831,835.942 2450.267,891.021 				"/>
				<path style="opacity:0.3;fill:#97A6B7;" d="M1865.337,900.999l-584.469,7.312l13.11-131.809
					c0.989-17.126,13.371-31.186,29.671-33.691l98.983-15.211c11.653-1.791,21.69-9.493,26.783-20.553l10.733-23.31l258.901,15.987
					L1865.337,900.999z"/>
				
					<linearGradient id="SVGID_00000008830319838009969010000001051739925663368635_" gradientUnits="userSpaceOnUse" x1="1280.8679" y1="696.9829" x2="2199.699" y2="696.9829">
					<stop  offset="0" style="stop-color:#444B8C"/>
					<stop  offset="0.9964" style="stop-color:#26264F"/>
				</linearGradient>
				<path style="fill:url(#SVGID_00000008830319838009969010000001051739925663368635_);" d="M2177.448,815.486
					c-2.772-14.913-14.72-25.38-29.775-26.055l-93.392-4.186c-42.389-1.9-73.464-36.337-71.909-79.955l3.604-101.078
					c0.667-18.693-12.683-33.672-31.03-34.768l-30.684-1.833c-23.398-1.398-38.976-22.024-35.695-45.875
					c5.735-41.681-22.823-77.651-64.213-80.472c-41.714-2.842-80.647,29.027-86.857,71.241c-0.923,6.273-3.042,12.471-6.49,18.003
					c-9.639,15.462-26.528,23.975-43.069,22.987l-31.652-1.89c-19.178-1.146-37.403,12.315-42.261,31.255l-26.318,102.6
					c-11.382,44.373-54.316,76.438-99.906,74.395l-102.447-4.592c-16.779-0.752-33.245,9.027-40.972,24.36l-61.734,122.499
					c-5.056,10.032,1.17,20.87,12.188,21.236l888.433,29.509c9.724,0.323,17.975-9.372,16.184-19.008L2177.448,815.486z
					 M1811.762,528.749c-12.237-0.758-20.73-11.397-18.95-23.761c1.78-12.364,13.153-21.74,25.385-20.943
					c12.211,0.795,20.656,11.431,18.881,23.757C1835.304,520.127,1823.978,529.506,1811.762,528.749z"/>
				<path style="fill:#97A6B7;" d="M2182.711,818.226c-2.773-14.912-14.721-25.38-29.775-26.054l-93.392-4.186
					c-42.389-1.9-73.464-36.338-71.909-79.955l3.604-101.078c0.667-18.693-12.683-33.672-31.03-34.768l-30.684-1.833
					c-23.398-1.398-38.976-22.024-35.695-45.874c5.735-41.682-22.823-77.652-64.212-80.472
					c-41.714-2.842-80.647,29.026-86.857,71.241c-0.923,6.273-3.042,12.471-6.49,18.003c-9.639,15.462-26.529,23.974-43.069,22.987
					l-31.652-1.891c-19.179-1.146-37.403,12.316-42.262,31.255l-26.317,102.6c-11.382,44.373-54.317,76.438-99.906,74.395
					l-102.447-4.592c-16.779-0.752-33.245,9.027-40.972,24.36l-61.734,122.498c-5.056,10.033,1.17,20.87,12.188,21.236
					l888.432,29.509c9.724,0.323,17.975-9.373,16.184-19.008L2182.711,818.226z M1817.024,531.489
					c-12.237-0.758-20.73-11.397-18.95-23.761c1.78-12.364,13.154-21.74,25.385-20.943c12.211,0.795,20.656,11.431,18.882,23.757
					C1840.566,522.867,1829.24,532.246,1817.024,531.489z"/>
				<g>
					<path style="opacity:0.5;fill:#FFFFFF;" d="M2030.666,874.519c-79.25-48.923-140.058-14.235-189.449-69.413
						c-52.874-59.069-17.212-136.833-71.92-173.527c-35.025-23.493-66.268-2.772-107.004-9.132
						c-14.915-2.328-30.833-8.257-47.374-19.814l-21.949,85.569c-11.382,44.374-54.317,76.436-99.906,74.395l-102.448-4.591
						c-16.778-0.752-33.245,9.028-40.972,24.36l-61.734,122.499c-5.056,10.031,1.17,20.87,12.189,21.235l807.402,26.818
						C2087.165,920.618,2061.902,893.8,2030.666,874.519z"/>
				</g>
			</g>
			<g>
				<g>
					<path style="fill:#D8DEE8;" d="M1340.009,1559.444c-157.407,5.095-290.578-117.382-290.578-275.291
						c0-160.236,136.687-286.358,298.083-279.281c154.538,6.776,272.322,134.102,268.462,282.246
						C1612.168,1433.271,1490.893,1554.56,1340.009,1559.444z"/>
					<path style="fill:#FFFFFF;" d="M1597.855,1287.023c-3.448,136.704-116.579,249.56-257.593,253.763
						c-146.697,4.372-269.915-109.604-269.773-256.523c0.144-148.931,126.61-265.97,276.76-259.792
						C1491.446,1030.405,1601.347,1148.578,1597.855,1287.023z"/>
					<g>
						<defs>
							<path id="SVGID_00000173158461223759134830000009121305383073711772_" d="M1579.641,1286.928
								c-3.096,126.964-108.262,231.603-239.125,235.168c-135.744,3.698-249.348-101.994-249.085-237.723
								c0.265-137.444,116.86-245.671,255.555-240.337C1480.584,1049.174,1582.773,1158.463,1579.641,1286.928z"/>
						</defs>
						<clipPath id="SVGID_00000065791519369688398560000012799126878456741765_">
							<use xlink:href="#SVGID_00000173158461223759134830000009121305383073711772_"  style="overflow:visible;"/>
						</clipPath>
						<g style="clip-path:url(#SVGID_00000065791519369688398560000012799126878456741765_);">
							
								<linearGradient id="SVGID_00000031926830070290217560000000247816173906012856_" gradientUnits="userSpaceOnUse" x1="1070.3152" y1="1489.9819" x2="1593.6333" y2="1489.9819">
								<stop  offset="0" style="stop-color:#AB316D"/>
								<stop  offset="1" style="stop-color:#792D3D"/>
							</linearGradient>
							<path style="fill:url(#SVGID_00000031926830070290217560000000247816173906012856_);" d="M1070.315,1464.168
								c0,0,240.265-137.55,523.318-9.73c0,0-38.252,111.475-253.887,124.446
								C1110.664,1592.664,1070.315,1464.168,1070.315,1464.168z"/>
							
								<linearGradient id="SVGID_00000088837614032982886910000004161357025643352493_" gradientUnits="userSpaceOnUse" x1="1333.5338" y1="1306.8678" x2="1334.4917" y2="1492.7178">
								<stop  offset="0.0036" style="stop-color:#F36F56"/>
								<stop  offset="1" style="stop-color:#FFC444"/>
							</linearGradient>
							<path style="fill:url(#SVGID_00000088837614032982886910000004161357025643352493_);" d="M1301.844,1285.474l-9.605,64.222
								c-3.025,40.7-44.773,56.414-44.773,56.414c48.155,55.131,140.312,51.445,173.152-1.442
								c-21.979-7.798-46.356-40.945-46.977-64.338l-1.446-54.488L1301.844,1285.474z"/>
							
								<linearGradient id="SVGID_00000148650067750362016000000006611279840272434096_" gradientUnits="userSpaceOnUse" x1="1363.5442" y1="1047.5353" x2="1316.0883" y2="1340.6085">
								<stop  offset="0.0036" style="stop-color:#F36F56"/>
								<stop  offset="1" style="stop-color:#FFC444"/>
							</linearGradient>
							<path style="fill:url(#SVGID_00000148650067750362016000000006611279840272434096_);" d="M1409.716,1229.535
								c-0.893,54.041-34.943,111.884-76.191,111.984c-41.72,0.102-75.326-58.782-74.796-113.958
								c0.532-55.456,35.301-85.055,77.389-84.014C1377.725,1144.577,1410.613,1175.224,1409.716,1229.535z"/>
							
								<linearGradient id="SVGID_00000101802955775746907230000017162418633236667311_" gradientUnits="userSpaceOnUse" x1="1338.7916" y1="1107.3013" x2="1315.512" y2="1251.069">
								<stop  offset="0" style="stop-color:#444B8C"/>
								<stop  offset="0.9964" style="stop-color:#26264F"/>
							</linearGradient>
							<path style="fill:url(#SVGID_00000101802955775746907230000017162418633236667311_);" d="M1256.322,1241.485
								c4.23-0.6,8.456-1.199,12.676-1.798c-1.891-4.545-9.694-24.698,0.424-42.112c9.712-16.714,32.219-24.5,49.274-23.043
								c19.319,1.651,30.776,10.603,40.534,4.042c5.48-3.685,7.336-10.541,8.034-15.898c0.378,3.445,1.274,8.546,3.689,14.207
								c6.925,16.236,18.971,19.8,25.38,30.524c4.308,7.207,6.989,19.185-0.637,40.083c3.641-0.173,7.277-0.347,10.911-0.519
								c4.025-11.726,8.898-28.376,12.101-48.812c4.765-30.399,8.049-51.362-3.855-61.924c-2.376-2.108-12.916-10.508-38.647-3.541
								c-5.923-6.33-18.457-17.99-37.972-24.266c-6.766-2.176-40.443-13.007-70.768,7.407c-20.667,13.912-37.02,40.49-32.027,62.877
								c2.635,11.813,10.062,17.23,16.421,40.016C1254.537,1228.326,1255.734,1236.379,1256.322,1241.485z"/>
							
								<linearGradient id="SVGID_00000110441115145710299720000017814048729128912319_" gradientUnits="userSpaceOnUse" x1="1440.3353" y1="1063.4028" x2="1393.4794" y2="1352.7701">
								<stop  offset="0.0036" style="stop-color:#F36F56"/>
								<stop  offset="1" style="stop-color:#FFC444"/>
							</linearGradient>
							<path style="fill:url(#SVGID_00000110441115145710299720000017814048729128912319_);" d="M1399.061,1249.399
								c0,0,5.158-23.673,19.604-21.126c14.385,2.536-6.943,41.085-19.998,45.651L1399.061,1249.399z"/>
							
								<linearGradient id="SVGID_00000021107392216190916650000000255929516837324677_" gradientUnits="userSpaceOnUse" x1="1290.923" y1="1032.9304" x2="1242.8851" y2="1329.5974">
								<stop  offset="0.0036" style="stop-color:#F36F56"/>
								<stop  offset="1" style="stop-color:#FFC444"/>
							</linearGradient>
							<path style="fill:url(#SVGID_00000021107392216190916650000000255929516837324677_);" d="M1268.024,1248.05
								c0,0-4.716-24.238-19.857-22.038c-15.199,2.209,6.149,42.158,19.606,47.008L1268.024,1248.05z"/>
						</g>
					</g>
				</g>
				<g>
					<polygon style="fill:#D8DEE8;" points="2404.986,1224.468 1802.996,1221.503 1802.996,1140.917 2404.986,1147.121 					"/>
					<polygon style="fill:#D8DEE8;" points="2404.986,1321.993 1802.996,1323.111 1802.996,1263.548 2404.986,1264.823 					"/>
					<polygon style="fill:#D8DEE8;" points="2404.986,1419.517 1802.996,1424.72 1802.996,1365.156 2404.986,1362.347 					"/>
				</g>
				<g>
					
						<linearGradient id="SVGID_00000183222951146257870240000017587596399535597992_" gradientUnits="userSpaceOnUse" x1="1081.2732" y1="1719.9965" x2="1161.0951" y2="1719.9965">
						<stop  offset="0" style="stop-color:#FF9085"/>
						<stop  offset="1" style="stop-color:#FB6FBB"/>
					</linearGradient>
					<polygon style="fill:url(#SVGID_00000183222951146257870240000017587596399535597992_);" points="1161.095,1762.566 
						1081.273,1765.095 1081.273,1676.958 1161.095,1674.898 					"/>
					<polygon style="fill:#D8DEE8;" points="2404.986,1715.452 1220.962,1750.027 1220.962,1688.145 2404.986,1658.283 					"/>
				</g>
				<g>
					
						<linearGradient id="SVGID_00000104702493522396763230000009655691366788537016_" gradientUnits="userSpaceOnUse" x1="1081.2732" y1="1855.5117" x2="1161.0951" y2="1855.5117">
						<stop  offset="0" style="stop-color:#FF9085"/>
						<stop  offset="1" style="stop-color:#FB6FBB"/>
					</linearGradient>
					<polygon style="fill:url(#SVGID_00000104702493522396763230000009655691366788537016_);" points="1161.095,1897.719 
						1081.273,1900.972 1081.273,1812.835 1161.095,1810.052 					"/>
					<polygon style="fill:#D8DEE8;" points="2404.986,1839.88 1220.962,1884.711 1220.962,1822.829 2404.986,1782.71 					"/>
				</g>
				<g>
					
						<linearGradient id="SVGID_00000166646033629465973140000016626090508788150185_" gradientUnits="userSpaceOnUse" x1="1081.2732" y1="1989.1909" x2="1161.0951" y2="1989.1909">
						<stop  offset="0" style="stop-color:#FF9085"/>
						<stop  offset="1" style="stop-color:#FB6FBB"/>
					</linearGradient>
					<polygon style="fill:url(#SVGID_00000166646033629465973140000016626090508788150185_);" points="1161.095,2029.22 
						1081.273,2033.176 1081.273,1948.712 1161.095,1945.206 					"/>
					<polygon style="fill:#D8DEE8;" points="2404.986,1964.307 1220.962,2019.395 1220.962,1957.513 2404.986,1907.138 					"/>
				</g>
				<g>
					
						<linearGradient id="SVGID_00000159438970078204282820000013420631712978077626_" gradientUnits="userSpaceOnUse" x1="1081.2732" y1="2124.7063" x2="1161.0951" y2="2124.7063">
						<stop  offset="0" style="stop-color:#FF9085"/>
						<stop  offset="1" style="stop-color:#FB6FBB"/>
					</linearGradient>
					<polygon style="fill:url(#SVGID_00000159438970078204282820000013420631712978077626_);" points="1161.095,2164.374 
						1081.273,2169.053 1081.273,2084.589 1161.095,2080.36 					"/>
					<polygon style="fill:#D8DEE8;" points="2404.986,2088.735 1220.962,2154.079 1220.962,2092.198 2404.986,2031.565 					"/>
				</g>
				<polygon style="fill:#D8DEE8;" points="2404.986,2273.694 1087.925,2363.187 1087.925,2297.115 2404.986,2213.162 				"/>
				<polygon style="fill:#D8DEE8;" points="2404.986,2388.033 1087.925,2487.989 1087.925,2425.588 2404.986,2330.864 				"/>
				<polygon style="fill:#D8DEE8;" points="2404.986,2502.372 1087.925,2612.791 1087.925,2550.39 2404.986,2445.202 				"/>
				<polygon style="fill:#D8DEE8;" points="2404.986,2616.71 1087.925,2737.594 1087.925,2675.192 2404.986,2559.541 				"/>
			</g>
		</g>
		<g>
			
				<linearGradient id="SVGID_00000132770402268210242310000007974618672962111677_" gradientUnits="userSpaceOnUse" x1="2482.6782" y1="3377.3438" x2="1512.4884" y2="3102.8005" gradientTransform="matrix(0.978 0.2086 -0.2086 0.978 191.0363 -600.0184)">
				<stop  offset="0" style="stop-color:#311944"/>
				<stop  offset="1" style="stop-color:#A03976"/>
			</linearGradient>
			<path style="fill:url(#SVGID_00000132770402268210242310000007974618672962111677_);" d="M1195.752,2996.111
				c27.097,21.909,68.294,15.887,92.018-13.453c23.723-29.34,20.989-70.886-6.107-92.795c-1.404-1.135-2.867-2.149-4.342-3.136
				c9.529-17.002,17.7-34.443,24.469-52.19c1.743,0.367,3.497,0.71,5.307,0.931c35.328,4.304,69.638-21.683,76.636-58.048
				c6.998-36.365-15.969-69.333-51.296-73.638c-1.848-0.224-3.688-0.318-5.525-0.381c0.206-18.716-1.017-37.303-3.658-55.603
				c1.794-0.593,3.586-1.219,5.368-1.974c34.092-14.453,52.325-53.445,40.721-87.089c-11.604-33.645-48.65-49.201-82.742-34.748
				c-1.747,0.741-3.423,1.586-5.085,2.452c-8.953-15.45-19.242-30.193-30.807-44.111c1.319-1.394,2.622-2.813,3.851-4.333
				c23.724-29.34,53.22-60.625,25.784-82.107c-63.468-49.696-100.184-26.575-123.908,2.765c-1.228,1.52-2.344,3.092-3.431,4.673
				c-16.032-8.396-32.601-15.371-49.582-20.892c0.499-1.806,0.974-3.621,1.333-5.484c6.996-36.363,21.92-53.666-12.736-61.765
				c-75.571-17.662-108.201,9.815-115.198,46.177c-0.366,1.9-0.603,3.785-0.807,5.663c-18.447,1.248-36.878,3.942-55.138,8.062
				c-0.445-1.784-0.923-3.564-1.529-5.323c-11.604-33.644-48.65-49.2-82.744-34.746c-34.094,14.455-52.324,53.445-40.72,87.089
				c0.594,1.724,1.298,3.367,2.021,4.994c-15.937,10.335-31.281,21.975-45.911,34.853c-1.273-1.236-2.572-2.455-3.976-3.59
				c-27.096-21.91-68.294-15.887-92.018,13.453c-23.724,29.339-20.989,70.886,6.107,92.795c1.404,1.135,2.868,2.15,4.342,3.136
				c-9.529,17.002-17.7,34.443-24.47,52.19c-1.743-0.366-3.497-0.71-5.305-0.932c-35.329-4.302-69.64,21.685-76.638,58.05
				c-6.997,36.365,15.97,69.332,51.298,73.636c1.845,0.225,3.686,0.32,5.523,0.382c-0.207,18.716,1.016,37.303,3.658,55.604
				c-1.793,0.593-3.586,1.218-5.367,1.974c-34.093,14.453-52.325,53.445-40.72,87.089c11.604,33.644,68.119,60.179,102.212,45.726
				c1.748-0.741-16.048-12.564-14.386-13.43c8.953,15.45,19.242,30.193,30.807,44.112c-1.318,1.394-2.622,2.813-3.851,4.333
				c-23.724,29.339-20.989,70.885,6.107,92.795c27.096,21.909,68.294,15.886,92.018-13.453c1.229-1.52,2.344-3.092,3.431-4.673
				c16.031,8.396,32.601,15.371,49.582,20.892c-0.498,1.806-0.974,3.621-1.333,5.485c-6.997,36.363,15.97,69.332,51.297,73.636
				c35.328,4.304,69.64-21.685,76.636-58.048c0.365-1.9,0.602-3.785,0.806-5.663c18.448-1.247,36.879-3.942,55.138-8.062
				c0.446,1.783,0.924,3.564,1.53,5.321c11.604,33.644,48.649,49.201,82.743,34.747c34.094-14.455,52.325-53.445,40.721-87.091
				c-0.595-1.722-1.298-3.365-2.022-4.992c15.937-10.335,31.281-21.976,45.911-34.852
				C1193.05,2993.757,1194.349,2994.976,1195.752,2996.111z M815.923,2920.118c-98.381-79.55-108.307-230.393-22.171-336.918
				c86.136-106.527,235.715-128.395,334.095-48.846c98.381,79.55,108.307,230.393,22.171,336.919
				C1063.883,2977.8,914.304,2999.668,815.923,2920.118z"/>
			
				<linearGradient id="SVGID_00000148658510623207203950000005961268252782772618_" gradientUnits="userSpaceOnUse" x1="2480.1384" y1="3386.3308" x2="1509.9403" y2="3111.7852" gradientTransform="matrix(0.978 0.2086 -0.2086 0.978 191.0363 -600.0184)">
				<stop  offset="0" style="stop-color:#311944"/>
				<stop  offset="1" style="stop-color:#A03976"/>
			</linearGradient>
			<path style="fill:url(#SVGID_00000148658510623207203950000005961268252782772618_);" d="M1307.098,2835.468
				c35.328,4.303,69.638-21.686,76.636-58.049c6.998-36.364-15.969-69.333-51.297-73.636c-1.847-0.225-3.688-0.318-5.525-0.382
				c0.207-18.717-1.017-37.303-3.658-55.603c1.794-0.592,3.586-1.219,5.368-1.975c34.093-14.453,81.498-56.837,66.505-89.112
				c-28.458-61.258-74.435-47.176-108.527-32.723c-1.747,0.741-3.423,1.585-5.083,2.451c-8.954-15.45-19.243-30.192-30.808-44.111
				c1.319-1.394,2.622-2.813,3.851-4.332c12.912-15.968,17.925-35.541,15.501-53.606c-39.404,44.313-78.468,88.92-117.084,133.91
				c74.26,83.271,75.17,216.35-2.959,312.975c-66.207,81.881-169.88,113.673-258.991,87.911
				c-6.27,9.607-12.478,19.287-19.012,28.732c-17.731,25.633-36.934,50.346-56.147,75.019c8.054,3.372,16.217,6.415,24.479,9.102
				c-0.499,1.807-0.974,3.622-1.333,5.485c-6.997,36.364,8.424,71.817,71.967,81.886c35.151,5.571,48.969-29.934,55.967-66.298
				c0.365-1.9,0.603-3.784,0.807-5.662c18.448-1.247,36.878-3.942,55.137-8.063c0.445,1.784,0.923,3.564,1.53,5.321
				c11.604,33.646,71.217,59.604,105.311,45.149c34.094-14.454,29.755-63.846,18.152-97.491c-0.594-1.724-1.298-3.367-2.021-4.994
				c15.936-10.335,31.281-21.975,45.911-34.851c1.273,1.236,2.572,2.455,3.976,3.588c27.096,21.911,68.294,15.887,92.018-13.453
				c23.723-29.338,20.99-70.885-6.107-92.795c-1.404-1.135-2.867-2.15-4.342-3.136c9.529-17.002,17.7-34.444,24.469-52.189
				C1303.534,2834.904,1305.288,2835.246,1307.098,2835.468z"/>
			
				<linearGradient id="SVGID_00000176008454765622246690000002747633422792192432_" gradientUnits="userSpaceOnUse" x1="999.7599" y1="2413.6353" x2="1014.6358" y2="3614.8728">
				<stop  offset="0" style="stop-color:#FF9085"/>
				<stop  offset="1" style="stop-color:#FB6FBB"/>
			</linearGradient>
			<path style="fill:url(#SVGID_00000176008454765622246690000002747633422792192432_);" d="M1364.328,2714.469
				c-1.847-0.223-3.688-0.319-5.525-0.381c0.207-18.716-1.017-37.304-3.659-55.603c1.795-0.593,3.586-1.22,5.37-1.975
				c34.092-14.452,52.324-53.444,40.719-87.089c-11.603-33.644-48.649-49.201-82.743-34.747c-1.747,0.742-3.422,1.586-5.084,2.451
				c-8.953-15.45-19.241-30.19-30.806-44.11c1.318-1.394,2.622-2.814,3.851-4.333c23.724-29.339,20.99-70.885-6.107-92.795
				c-27.095-21.91-68.294-15.887-92.017,13.453c-1.23,1.52-2.345,3.092-3.432,4.673c-16.031-8.396-32.601-15.371-49.581-20.892
				c0.499-1.807,0.974-3.621,1.333-5.484c6.995-36.363-15.97-69.332-51.297-73.636c-35.329-4.305-69.641,21.686-76.637,58.047
				c-0.365,1.902-0.601,3.785-0.806,5.664c-18.448,1.248-36.879,3.943-55.138,8.063c-0.445-1.784-0.923-3.563-1.529-5.323
				c-11.604-33.644-48.649-49.201-82.742-34.746c-34.095,14.455-52.325,53.445-40.721,87.089c0.594,1.723,1.297,3.368,2.021,4.994
				c-15.938,10.335-31.283,21.975-45.913,34.853c-1.273-1.237-2.57-2.456-3.975-3.59c-27.095-21.911-68.293-15.887-92.017,13.452
				c-23.724,29.34-20.99,70.887,6.107,92.795c1.402,1.136,2.867,2.151,4.342,3.136c-9.529,17.003-17.7,34.444-24.47,52.191
				c-1.742-0.366-3.498-0.711-5.305-0.933c-35.329-4.302-69.639,21.685-76.637,58.05c-6.998,36.365,15.971,69.332,51.297,73.636
				c1.846,0.227,3.686,0.32,5.524,0.383c-0.207,18.718,1.016,37.304,3.657,55.604c-1.793,0.593-3.586,1.219-5.366,1.974
				c-34.094,14.453-52.325,53.445-40.721,87.089s48.649,49.201,82.741,34.747c1.749-0.742,3.424-1.586,5.085-2.451
				c8.954,15.45,19.241,30.192,30.806,44.11c-1.317,1.396-2.622,2.814-3.851,4.333c-23.722,29.34-20.99,70.885,6.107,92.795
				c27.095,21.91,68.294,15.887,92.017-13.453c1.23-1.519,2.345-3.091,3.432-4.672c16.031,8.396,32.601,15.369,49.583,20.89
				c-0.499,1.808-0.975,3.621-1.333,5.486c-6.997,36.362,15.969,69.332,51.297,73.636c35.327,4.304,69.639-21.685,76.636-58.048
				c0.366-1.9,0.603-3.785,0.806-5.663c18.448-1.246,36.88-3.941,55.138-8.061c0.445,1.781,0.923,3.563,1.53,5.32
				c11.604,33.644,48.647,49.202,82.741,34.747c34.095-14.453,52.325-53.444,40.723-87.091c-0.594-1.721-1.299-3.365-2.023-4.993
				c15.938-10.333,31.281-21.974,45.913-34.851c1.272,1.235,2.571,2.455,3.975,3.589c27.095,21.91,68.294,15.887,92.017-13.453
				c23.724-29.34,20.99-70.885-6.107-92.795c-1.404-1.135-2.867-2.149-4.342-3.136c9.529-17.002,17.7-34.443,24.47-52.191
				c1.744,0.368,3.496,0.711,5.307,0.931c35.329,4.304,69.637-21.683,76.636-58.048S1399.655,2718.773,1364.328,2714.469z
				 M1181.909,2881.961c-86.135,106.526-235.715,128.395-334.095,48.846c-98.38-79.55-108.307-230.393-22.171-336.919
				c86.137-106.526,235.715-128.395,334.095-48.844C1258.119,2624.592,1268.045,2775.435,1181.909,2881.961z"/>
		</g>
		<g>
			<path style="fill:#D8DEE8;" d="M2659.062,2946.711l-363.79,51.576c-10.31,1.461-19.853-5.712-21.314-16.022l0,0
				c-1.462-10.309,5.711-19.852,16.021-21.314l363.79-51.576c10.31-1.461,19.852,5.712,21.314,16.021l0,0
				C2676.545,2935.706,2669.372,2945.249,2659.062,2946.711z"/>
			<path style="fill:#D8DEE8;" d="M2756.002,2894.882l-80.315,11.387l-6.471-45.646l80.316-11.387
				c0.925-0.131,1.781,0.512,1.912,1.437l5.996,42.296C2757.571,2893.894,2756.927,2894.75,2756.002,2894.882z"/>
			<path style="fill:#26264F;" d="M1281.785,3090.582l-33.922,4.81c-3.816,0.541-7.348-2.114-7.889-5.93l0,0
				c-0.541-3.817,2.114-7.348,5.93-7.89l33.922-4.809L1281.785,3090.582z"/>
			<path style="fill:#D8DEE8;" d="M1261.218,3086.45L1261.218,3086.45c0.992,6.997,6.764,12.333,13.818,12.774l145.584,9.104
				l-12.363-87.202l-137.316,49.212C1264.287,3072.722,1260.226,3079.452,1261.218,3086.45z"/>
			<path style="fill:#FFFFFF;" d="M1269.639,3079.076L1269.639,3079.076c0.272,1.916,5.422,2.872,12.331,2.287l140.89-24.01
				l-3.386-23.884l-138.626,39.982C1274.05,3074.81,1269.367,3077.159,1269.639,3079.076z"/>
			
				<linearGradient id="SVGID_00000083071596695094189500000007451804454350688142_" gradientUnits="userSpaceOnUse" x1="2180.5261" y1="3349.8645" x2="2263.7249" y2="3659.7085" gradientTransform="matrix(0.9901 -0.1404 0.1404 0.9901 -660.5149 -224.5693)">
				<stop  offset="0" style="stop-color:#FFC444"/>
				<stop  offset="0.9964" style="stop-color:#F36F56"/>
			</linearGradient>
			<path style="fill:url(#SVGID_00000083071596695094189500000007451804454350688142_);" d="M2683.171,2927.69l-1265.969,181.123
				c-24.08,3.414-36.443-83.789-12.363-87.203l1265.969-181.123c14.365-2.036,27.66,7.958,29.697,22.322l4.988,35.185
				C2707.53,2912.358,2697.535,2925.654,2683.171,2927.69z"/>
			<polygon style="fill:#FFFFFF;" points="2400.288,2916.269 1405.132,3058.998 1402.218,3038.446 2397.375,2895.717 			"/>
			
				<linearGradient id="SVGID_00000111172971025043240340000011509382073900096447_" gradientUnits="userSpaceOnUse" x1="2586.1973" y1="3546.5991" x2="2597.9028" y2="3546.5991" gradientTransform="matrix(0.9901 -0.1404 0.1404 0.9901 -660.5149 -224.5693)">
				<stop  offset="0" style="stop-color:#AA80F9"/>
				<stop  offset="0.9964" style="stop-color:#6165D7"/>
			</linearGradient>
			<polygon style="fill:url(#SVGID_00000111172971025043240340000011509382073900096447_);" points="2415.816,2965.948 
				2404.229,2967.59 2391.816,2880.041 2403.404,2878.398 			"/>
			
				<rect x="2663.553" y="2841.128" transform="matrix(0.9901 -0.1403 0.1403 0.9901 -378.4922 403.1568)" style="fill:#FFFFFF;" width="11.703" height="88.425"/>
			
				<linearGradient id="SVGID_00000069356832594575182320000009677762148708567192_" gradientUnits="userSpaceOnUse" x1="2180.2666" y1="3348.8936" x2="2263.6685" y2="3659.4941" gradientTransform="matrix(0.9901 -0.1404 0.1404 0.9901 -660.5149 -224.5693)">
				<stop  offset="0.0036" style="stop-color:#F36F56"/>
				<stop  offset="1" style="stop-color:#FFC444"/>
			</linearGradient>
			<path style="opacity:0.3;fill:url(#SVGID_00000069356832594575182320000009677762148708567192_);" d="M2670.808,2840.487
				l-606.627,87.645c-66.334,67.308-114.308,79.933-148.178,75.602c-23.521-3.01-54.336-15.984-100.246-6.82
				c-44.337,8.85-45.911,27.001-82.24,29.951c-53.857,4.374-74.269-33.583-113.959-19.6c-21.343,7.519-17.31,19.154-46.384,38.77
				c-10.782,7.277-55.687,37.572-109.395,27.193c-31.239-6.037-54.085-23.642-69.431-40.167
				c-7.925,24.324,3.777,78.458,22.854,75.753l1265.969-181.122c14.364-2.037,24.358-15.332,22.321-29.697l-4.988-35.185
				C2698.468,2848.445,2685.173,2838.451,2670.808,2840.487z"/>
		</g>
		<g>
			
				<linearGradient id="SVGID_00000066498554644069132730000004568134799076341384_" gradientUnits="userSpaceOnUse" x1="537.7173" y1="2962.9419" x2="557.0059" y2="3208.4316" gradientTransform="matrix(1 -0.0024 0.0024 1 1942.0771 3.3687)">
				<stop  offset="0" style="stop-color:#311944"/>
				<stop  offset="1" style="stop-color:#A03976"/>
			</linearGradient>
			<path style="fill:url(#SVGID_00000066498554644069132730000004568134799076341384_);" d="M2524.817,3087.361
				c0,0-77.559,35.474-78.813,41.111c-1.255,5.636,49.927-2.008,70.831-1.246c20.904,0.763,38.083-5.457,36.171-14.305
				c-1.915-8.849-9.285-31.099-9.285-31.099L2524.817,3087.361z"/>
			
				<linearGradient id="SVGID_00000132792656271637424320000008743939871500155548_" gradientUnits="userSpaceOnUse" x1="587.5119" y1="3099.6143" x2="584.0052" y2="2845.3643" gradientTransform="matrix(1 -0.0024 0.0024 1 1942.0771 3.3687)">
				<stop  offset="0" style="stop-color:#FFC444"/>
				<stop  offset="0.9964" style="stop-color:#F36F56"/>
			</linearGradient>
			<path style="fill:url(#SVGID_00000132792656271637424320000008743939871500155548_);" d="M2521.907,3058.73l4.807,34.946
				c0,0,12.302,4.346,20.547-0.847l3.431-38.349L2521.907,3058.73z"/>
			
				<linearGradient id="SVGID_00000164485883881442228260000008891157715238658731_" gradientUnits="userSpaceOnUse" x1="902.2209" y1="2934.3069" x2="921.5088" y2="3179.7881" gradientTransform="matrix(1 -0.0024 0.0024 1 1942.0771 3.3687)">
				<stop  offset="0" style="stop-color:#311944"/>
				<stop  offset="1" style="stop-color:#A03976"/>
			</linearGradient>
			<path style="fill:url(#SVGID_00000164485883881442228260000008891157715238658731_);" d="M2887.559,3058.69l9.066,14.476
				c2.535,4.049,3.3,8.928,2.101,13.552c-3.129,12.064-9.381,35.574-12.117,41.708c-3.724,8.354-53.958,13.432-53.958,13.432
				s-4.495-6.294,5.918-13.935c10.413-7.641,17.116-8.854,20.771-20.102c3.654-11.246,6.034-43.04,6.034-43.04L2887.559,3058.69z"/>
			
				<linearGradient id="SVGID_00000070100700659184475950000015521997823360423575_" gradientUnits="userSpaceOnUse" x1="921.563" y1="3095.0068" x2="918.0562" y2="2840.749" gradientTransform="matrix(1 -0.0024 0.0024 1 1942.0771 3.3687)">
				<stop  offset="0" style="stop-color:#FFC444"/>
				<stop  offset="0.9964" style="stop-color:#F36F56"/>
			</linearGradient>
			<path style="fill:url(#SVGID_00000070100700659184475950000015521997823360423575_);" d="M2849.88,3021.936
				c3.305,2.622,19.56,51.565,19.56,51.565s5.24,6.667,15.139-3.215c9.898-9.882,4.48-4.433,4.48-4.433l-1.977-48.171
				L2849.88,3021.936z"/>
			
				<linearGradient id="SVGID_00000172441544809524456550000007057629110775385217_" gradientUnits="userSpaceOnUse" x1="526.8324" y1="2687.7332" x2="714.8193" y2="2687.7332" gradientTransform="matrix(1 -0.0024 0.0024 1 1942.0771 3.3687)">
				<stop  offset="0" style="stop-color:#444B8C"/>
				<stop  offset="0.9964" style="stop-color:#3E4177"/>
			</linearGradient>
			<path style="fill:url(#SVGID_00000172441544809524456550000007057629110775385217_);" d="M2477.5,2356.508
				c-3.846,104.287-3.741,217.582,2.551,338.6c7.082,136.275,20.961,262.21,38.344,376.359c6.361,0.188,13.044,0.205,20.025-0.008
				c4.714-0.142,9.281-0.383,13.696-0.698c8.821-23.699,19.241-54.862,28.549-92.076c9.785-39.132,15.661-74.225,19.827-107.781
				c14.668-118.146-2.879-128.408,9.045-215.968c10.56-77.548,25.835-80.611,43.512-190.718
				c19.178-119.469,4.645-137.351-2.418-143.806C2620.566,2292.932,2550.145,2311.859,2477.5,2356.508z"/>
			
				<linearGradient id="SVGID_00000115480527899651129690000014753270684481231013_" gradientUnits="userSpaceOnUse" x1="526.832" y1="2687.7412" x2="714.8181" y2="2687.7412" gradientTransform="matrix(1 -0.0024 0.0024 1 1942.0771 3.3687)">
				<stop  offset="0" style="stop-color:#444B8C"/>
				<stop  offset="0.9964" style="stop-color:#3E4177"/>
			</linearGradient>
			<path style="opacity:0.3;fill:url(#SVGID_00000115480527899651129690000014753270684481231013_);" d="M2650.631,2320.414
				c-28.675-26.212-94.072-10.145-163.086,30.131c79.713,85.709,88.514,141.412,79.069,177.592
				c-10.674,40.89-43.396,52.738-43.164,97.422c0.286,54.911,49.879,69.338,48.965,127.447
				c-0.604,38.425-22.382,38.078-27.411,85.547c-5.95,56.166,22.546,75.446,13.431,117.013c-3.921,17.883-15.18,41.264-47.349,65.4
				c2.365,17.055,4.788,33.938,7.311,50.501c6.358,0.186,13.042,0.205,20.023-0.01c4.714-0.141,9.283-0.382,13.694-0.697
				c8.822-23.699,19.242-54.861,28.551-92.075c9.785-39.132,15.661-74.225,19.827-107.781
				c14.667-118.146-2.879-128.408,9.045-215.968c10.56-77.548,25.835-80.613,43.511-190.718
				C2672.226,2344.748,2657.694,2326.867,2650.631,2320.414z"/>
			
				<linearGradient id="SVGID_00000137828212677856277050000007472115768940530846_" gradientUnits="userSpaceOnUse" x1="579.0213" y1="2669.2021" x2="957.4601" y2="2669.2021" gradientTransform="matrix(1 -0.0024 0.0024 1 1942.0771 3.3687)">
				<stop  offset="0" style="stop-color:#444B8C"/>
				<stop  offset="0.9964" style="stop-color:#3E4177"/>
			</linearGradient>
			<path style="fill:url(#SVGID_00000137828212677856277050000007472115768940530846_);" d="M2526.745,2354.638
				c68.698,100.004,142.838,224.491,209.231,373.55c50.174,112.645,86.621,218.433,113.42,312.728
				c3.6,1.655,12.09,4.957,22.925,3.498c14.779-1.991,23.617-11.448,25.926-14.088c10.652-67.668,9.323-124.953,5.553-166.29
				c-2.414-26.466-6.679-70.54-23.684-124.921c-19.046-60.914-32.048-64.309-56.859-128.744
				c-25.752-66.88-19.594-83.6-44.303-167.315c-10.151-34.391-27.128-85.563-55.085-146.756
				C2658.161,2315.745,2592.452,2335.192,2526.745,2354.638z"/>
			
				<linearGradient id="SVGID_00000117672273667969852840000006549602037311833230_" gradientUnits="userSpaceOnUse" x1="1907.4766" y1="3475.6479" x2="1907.4766" y2="2056.7576" gradientTransform="matrix(-1 0 0 1 4525.3384 0)">
				<stop  offset="0" style="stop-color:#AA80F9"/>
				<stop  offset="0.9964" style="stop-color:#6165D7"/>
			</linearGradient>
			<path style="fill:url(#SVGID_00000117672273667969852840000006549602037311833230_);" d="M2308.297,2221.138
				c7.816,4.474,16.55,8.612,26.326,12.349c68.371,26.08,141.184-3.831,183.751-59.023c0.919-1.134,1.778-2.298,2.605-3.464
				c0.521-0.673,1.011-1.378,1.501-2.053c0.705-0.98,1.38-1.962,2.054-2.942c8.151-11.86,17.192-26.294,19.368-25.16
				c0.153,0.061,0.69,0.245,0.751,0.521c0.03,0.061,0.475,0.154,0.475,0.245v0.031c0,8.487-42,79.923-60.754,160.674
				c-10.023,43.272-7.64,63.528-26.394,92.335c-4.26,6.529-9.612,13.331-7.772,21.054c4.627,19.338,48.793,24.364,79.469,27.856
				c32.362,3.648,62.551,3.31,92.4,2.882c47.776-0.705,51.532-3.187,62.442,2.176c33.251,16.303,30.975,55.376,56.013,60.616
				c20.992,4.352,42.318-19.092,49.061-26.538c35.12-38.645,33.249-85.257,39.469-132.267
				c14.496-109.313,73.856-229.076,131.96-304.894c17.621-22.984,29.879-35.058,30.645-56.449
				c2.237-62.701-97.147-131.96-179.859-139.897c-22.677-2.207-63.283-1.502-101.376,2.084c-15.2,1.44-31.412,3.554-48.819,6.589
				c-42.229,7.385-71.618,12.534-101.559,26.233c-120.805,55.254-64.479,129.478-195.214,214.549
				c-44.957,29.236-118.69-62.792-117.986-37.295C2247.435,2083.631,2222.918,2172.258,2308.297,2221.138z"/>
			
				<linearGradient id="SVGID_00000111162156920568701950000013986334327334220437_" gradientUnits="userSpaceOnUse" x1="7.8473" y1="1904.6661" x2="-32.3127" y2="2258.9324" gradientTransform="matrix(1 0 0 1 2736.8777 0)">
				<stop  offset="0" style="stop-color:#FFC444"/>
				<stop  offset="0.9964" style="stop-color:#F36F56"/>
			</linearGradient>
			<path style="fill:url(#SVGID_00000111162156920568701950000013986334327334220437_);" d="M2742.609,1784.107
				c0,0,5.188,28.953,17.13,49.563c10.793,18.627,55.417,25.304,64.714,28.546c9.297,3.241-14.026,19.432-38.829,25.303
				c-24.801,5.872-97.35,9.71-111.558,1.901c-14.209-7.808,9.227-10.195,26.294-19.168c17.067-8.973,22.775-45.445,17.49-60.95
				C2712.565,1793.794,2742.609,1784.107,2742.609,1784.107z"/>
			<g>
				
					<linearGradient id="SVGID_00000147932608446428371160000013199531362880430977_" gradientUnits="userSpaceOnUse" x1="1886.6694" y1="2709.7307" x2="1822.1692" y2="2545.9119" gradientTransform="matrix(0.9989 0.0475 -0.0475 0.9989 1010.8801 -907.3022)">
					<stop  offset="0" style="stop-color:#444B8C"/>
					<stop  offset="0.9964" style="stop-color:#3E4177"/>
				</linearGradient>
				<path style="fill:url(#SVGID_00000147932608446428371160000013199531362880430977_);" d="M2695.456,1775.728
					c-17.998-12.863-22.982-47.647-12.986-55.456c2.857-2.232,5.587-1.207,46.205,15.086c20.171,8.093,30.092,12.4,33.359,21.309
					c1.996,5.438,1.673,12.784-0.531,18.572c-1.135,2.979-3.346,6.687-8.263,13.764c-4.364,6.28-4.07,6.067-5.407,7.893
					c-3.213,4.384-9.412,11.766-20.77,20.323c-0.632-3.202-1.63-7.174-3.303-11.507c-0.643-1.667-3.238-8.183-7.352-13.672
					C2709.329,1782.592,2701.297,1779.903,2695.456,1775.728z"/>
				
					<linearGradient id="SVGID_00000043434897938649060290000001161407366560933046_" gradientUnits="userSpaceOnUse" x1="-17.1637" y1="1765.6776" x2="14.3902" y2="2026.7155" gradientTransform="matrix(1 0 0 1 2736.8777 0)">
					<stop  offset="0" style="stop-color:#FFC444"/>
					<stop  offset="0.9964" style="stop-color:#F36F56"/>
				</linearGradient>
				<path style="fill:url(#SVGID_00000043434897938649060290000001161407366560933046_);" d="M2741.583,1808.809
					c0,0-11.776,17.542-33.588,15.162c-19.53-2.132-20.476-46.177-7.559-54.951c4.309-2.927,12.724-3.851,19.438-1.65
					c3.966,1.3,5.25,3.03,11.771,5.027c6.013,1.844,7.762,1.244,9.531,2.871c2.212,2.033,3.687,6.845-0.711,19.518
					c3.902-3.621,8.452-4.876,11.563-3.237c0.496,0.261,1.802,1.235,2.497,2.655
					C2757.042,1799.342,2752.182,1805.547,2741.583,1808.809z"/>
			</g>
			
				<linearGradient id="SVGID_00000181775218769015024500000011393288579699963547_" gradientUnits="userSpaceOnUse" x1="1961.3944" y1="2164.2466" x2="2217.0415" y2="2164.2466" gradientTransform="matrix(-1 0 0 1 4525.3384 0)">
				<stop  offset="0" style="stop-color:#AA80F9"/>
				<stop  offset="0.9964" style="stop-color:#6165D7"/>
			</linearGradient>
			<path style="opacity:0.4;fill:url(#SVGID_00000181775218769015024500000011393288579699963547_);" d="M2308.297,2221.138
				c7.816,4.474,16.55,8.612,26.326,12.349c68.371,26.08,141.184-3.831,183.751-59.023c0.919-1.134,1.778-2.298,2.605-3.464
				c0.521-0.673,1.011-1.378,1.501-2.053c0.705-0.98,1.38-1.962,2.054-2.942c8.151-11.86,17.192-26.294,19.368-25.16
				c0.153,0.061,0.245,0.245,0.307,0.521c0,0.061,0.03,0.154,0.03,0.245c6.559-10.297,13.147-20.563,19.706-30.86
				c-7.111-12.351-17.162-24.946-29.481-25.283c-26.14-0.643-32.883,54.458-77.84,90.68
				c-26.999,21.759-48.728,21.361-103.338,33.649C2340.138,2212.772,2325.092,2216.448,2308.297,2221.138z"/>
			
				<linearGradient id="SVGID_00000122718894515302881290000008771875145541509516_" gradientUnits="userSpaceOnUse" x1="1569.3792" y1="3475.6494" x2="1569.3792" y2="2056.7578" gradientTransform="matrix(-1 0 0 1 4525.3384 0)">
				<stop  offset="0" style="stop-color:#AA80F9"/>
				<stop  offset="0.9964" style="stop-color:#6165D7"/>
			</linearGradient>
			<path style="fill:url(#SVGID_00000122718894515302881290000008771875145541509516_);" d="M2927.819,2419.672
				c33.073,2.951,107.521,4.297,160.175-44.416c87.659-81.093,44.173-235.453,13.659-301.839
				c-34.983-76.114-90.663-118.718-124.5-144.609c-41.98-32.122-67.604-51.728-98.431-47.338
				c-79.726,11.354-134.942,174.755-91.175,221.538c14.329,15.315,28.517,6.643,69.983,19.848
				c13.503,4.301,114.291,36.402,131.838,110.633c12.282,51.954-18.988,112.789-74.642,153.648
				C2919.091,2397.983,2923.455,2408.828,2927.819,2419.672z"/>
			
				<linearGradient id="SVGID_00000000207011232628169420000016155719679904533122_" gradientUnits="userSpaceOnUse" x1="-283.7918" y1="2273.553" x2="340.8311" y2="2273.553" gradientTransform="matrix(1 0 0 1 2736.8777 0)">
				<stop  offset="0" style="stop-color:#AA80F9"/>
				<stop  offset="0.9964" style="stop-color:#6165D7"/>
			</linearGradient>
			<path style="opacity:0.4;fill:url(#SVGID_00000000207011232628169420000016155719679904533122_);" d="M2557.11,2392.757
				c37.443-23.662,42.982-47.644,84.91-63.848c54.469-21.052,80.643,5.69,107.648-15.901c32.138-25.694,3.688-70.458,27.738-148.139
				c4.082-13.185,35.086-113.331,106.226-126.09c33.173-5.95,76.988,6.759,93.871,34.871c13.213,22,0.904,38.401,16.969,62.688
				c16.054,24.272,35.254,18.335,55.719,38.579c32.495,32.145,37.477,99.928,8.139,138.262
				c-13.684,17.88-31.466,24.95-64.925,38.255c-20.437,8.125-39.436,13.18-55.797,16.39c40.97-39.323,62.232-90.036,51.76-134.333
				c-10.938-46.272-54.218-76.169-88.542-93.171c-34.346,64.637-62.417,139.537-71.765,210.098
				c-6.229,47.015-4.353,93.627-39.473,132.288c-6.756,7.438-28.067,30.897-49.074,26.518
				c-25.015-5.212-22.763-44.302-56.005-60.616c-10.909-5.355-14.673-2.872-62.466-2.175c-29.855,0.437-60.054,0.792-92.439-2.885
				c-27.279-3.098-65.201-7.438-76.52-21.956C2502.332,2420.253,2535.199,2406.603,2557.11,2392.757z"/>
			<g>
				
					<linearGradient id="SVGID_00000149360203013846715520000013040435142187821440_" gradientUnits="userSpaceOnUse" x1="1561.4464" y1="2248.6387" x2="2282.8369" y2="2248.6387" gradientTransform="matrix(-1 0 0 1 4525.3384 0)">
					<stop  offset="0" style="stop-color:#444B8C"/>
					<stop  offset="0.9964" style="stop-color:#26264F"/>
				</linearGradient>
				<path style="fill:url(#SVGID_00000149360203013846715520000013040435142187821440_);" d="M2242.501,2051.391l658.729,450.95
					c15.935,10.971,37.969,7.416,49.186-7.968l7.048-9.653c11.247-15.414,7.356-36.836-8.703-47.776l-13.177-8.948l-536.146-364.499
					l-110.202-74.929L2242.501,2051.391z"/>
				
					<linearGradient id="SVGID_00000048491793888777174910000017191002241947213989_" gradientUnits="userSpaceOnUse" x1="-1429.2861" y1="2396.6658" x2="-629.2115" y2="2396.6658" gradientTransform="matrix(0.9545 0.2981 -0.2981 0.9545 3658.8267 -199.1048)">
					<stop  offset="0" style="stop-color:#444B8C"/>
					<stop  offset="0.9964" style="stop-color:#26264F"/>
				</linearGradient>
				<path style="fill:url(#SVGID_00000048491793888777174910000017191002241947213989_);" d="M1625.187,1562.017
					c118.817-193.527,366.803-255.073,554.402-131.345c191.043,125.998,240.193,390.977,109.455,585.461
					c-127.667,189.918-376.527,236.162-555.658,109.323C1557.351,2000.809,1509.072,1751.143,1625.187,1562.017z M2234.286,1978.676
					c108.749-162.968,67.524-384.421-91.844-490.161c-156.961-104.143-365.287-53.499-465.65,108.803
					c-98.438,159.189-57.83,369.844,90.958,474.63C1918.739,2178.285,2127.681,2138.433,2234.286,1978.676z"/>
				<path style="opacity:0.6;fill:#D8DEE8;" d="M2242.501,2051.391l658.729,450.95c15.935,10.971,37.969,7.416,49.186-7.968
					l7.048-9.653c11.247-15.414,7.356-36.836-8.703-47.776l-13.147-8.98l-0.03,0.031c-32.362,32.514-53.723,37.111-68.034,33.495
					c-33.526-8.489-23.598-60.464-74.438-101.804c-50.29-40.882-90.895-15.232-147.927-60.709
					c-34.506-27.52-22.187-38.95-57.247-73.886c-69.872-69.628-142.348-47.778-175.568-98.925
					c-8.734-13.454-15.445-33.035-12.933-62.669l-110.202-74.929L2242.501,2051.391z"/>
				
					<linearGradient id="SVGID_00000142866843215957339080000016778731146806501270_" gradientUnits="userSpaceOnUse" x1="-4275.1533" y1="2530.7837" x2="-4678.0112" y2="2079.7205" gradientTransform="matrix(-0.9776 0.2103 0.2103 0.9776 -2986.783 603.6762)">
					<stop  offset="0" style="stop-color:#444B8C"/>
					<stop  offset="0.9964" style="stop-color:#26264F"/>
				</linearGradient>
				<path style="fill:url(#SVGID_00000142866843215957339080000016778731146806501270_);" d="M1606.084,1575.831
					c118.817-193.527,366.803-255.073,554.403-131.345c191.043,125.999,240.193,390.977,109.456,585.461
					c-127.668,189.918-376.528,236.162-555.659,109.323C1538.248,2014.623,1489.969,1764.957,1606.084,1575.831z M2215.184,1992.49
					c108.748-162.968,67.524-384.421-91.844-490.161c-156.961-104.143-365.286-53.499-465.65,108.803
					c-98.437,159.189-57.829,369.844,90.959,474.63C1899.637,2192.098,2108.579,2152.246,2215.184,1992.49z"/>
				
					<linearGradient id="SVGID_00000090263782414436287260000013312547167525450114_" gradientUnits="userSpaceOnUse" x1="-4867.3579" y1="1872.2054" x2="-4320.9829" y2="2473.6775" gradientTransform="matrix(-0.9776 0.2103 0.2103 0.9776 -2986.783 603.6762)">
					<stop  offset="0" style="stop-color:#444B8C"/>
					<stop  offset="0.9964" style="stop-color:#26264F"/>
				</linearGradient>
				<path style="fill:url(#SVGID_00000090263782414436287260000013312547167525450114_);" d="M1624.305,1588.295
					c112.315-182.475,346.277-240.119,523.015-123.307c179.792,118.831,226.137,368.367,103.224,551.69
					c-120.191,179.262-354.931,223.29-524.132,103.709C1559.972,2002.759,1514.402,1766.849,1624.305,1588.295z M2215.184,1992.49
					c108.748-162.968,67.524-384.421-91.844-490.161c-156.961-104.143-365.286-53.499-465.65,108.803
					c-98.437,159.189-57.829,369.844,90.959,474.63C1899.637,2192.098,2108.579,2152.246,2215.184,1992.49z"/>
			</g>
			
				<linearGradient id="SVGID_00000003077537696746517840000011113263541866924972_" gradientUnits="userSpaceOnUse" x1="1611.748" y1="2338.8164" x2="1761.9115" y2="2795.4363" gradientTransform="matrix(-1 0 0 1 4525.3384 0)">
				<stop  offset="0" style="stop-color:#FFC444"/>
				<stop  offset="0.9964" style="stop-color:#F36F56"/>
			</linearGradient>
			<path style="fill:url(#SVGID_00000003077537696746517840000011113263541866924972_);" d="M2925.011,2412.695l-7.366-18.306
				c0,0-12.024,0.733-21.891-6.343c-5.377-3.855-14.918-5.004-17.692-4.234c-2.773,0.769-13.246,0.311-1.308,6.007
				c11.936,5.694,11.843,9.925,6.867,14.6c-4.975,4.674-23.909,14.729-30.723,15.212c-6.815,0.485,5.507,11.025,12.379,12.372
				c6.874,1.344,18.144,3.047,32.086-5.162C2902.449,2423.847,2925.011,2412.695,2925.011,2412.695z"/>
			
				<linearGradient id="SVGID_00000114075868242240659610000003204553630414327990_" gradientUnits="userSpaceOnUse" x1="-1963.6563" y1="5590.8325" x2="-2169.6392" y2="6008.5205" gradientTransform="matrix(0.1745 0.9847 -0.9847 0.1745 8165.2354 3052.126)">
				<stop  offset="0" style="stop-color:#FFC444"/>
				<stop  offset="0.9964" style="stop-color:#F36F56"/>
			</linearGradient>
			<path style="fill:url(#SVGID_00000114075868242240659610000003204553630414327990_);" d="M2317.408,2102.131
				c-18.131-12.485-20.949-39.622-47.597-41.533c0,0-22.174-5.357-10.971,19.189
				C2270.043,2104.333,2324.208,2123.035,2317.408,2102.131z"/>
		</g>
	</g>
</g>
</svg>
